<svg width="150" height="150" viewBox="0 0 150 150" xmlns="http://www.w3.org/2000/svg">
    <g fill="none" fill-rule="evenodd" opacity=".1">
        <path d="M18 18h114v114H18z"/>
        <path d="M75 122.5c-26.234 0-47.5-21.266-47.5-47.5S48.766 27.5 75 27.5s47.5 21.266 47.5 47.5-21.266 47.5-47.5 47.5zm-16.625-38V94H70.25v9.5h9.5V94h4.75c6.558 0 11.875-5.317 11.875-11.875S91.058 70.25 84.5 70.25h-19a2.375 2.375 0 1 1 0-4.75h26.125V56H79.75v-9.5h-9.5V56H65.5c-6.558 0-11.875 5.317-11.875 11.875S58.942 79.75 65.5 79.75h19a2.375 2.375 0 1 1 0 4.75H58.375z" fill="#B53EF0"/>
    </g>
</svg>
