<svg width="25" height="25" viewBox="0 0 25 25" xmlns="http://www.w3.org/2000/svg">
    <g fill="none" fill-rule="evenodd" opacity=".75">
        <path d="M3 3h19v19H3z"/>
        <path d="M8.344 4.98a3.365 3.365 0 0 1 3.364 3.364v3.364H8.344a3.365 3.365 0 0 1 0-6.729zm0 8.312h3.364v3.364a3.365 3.365 0 1 1-3.364-3.364zm8.312-8.313a3.365 3.365 0 1 1 0 6.73h-3.364V8.343a3.365 3.365 0 0 1 3.364-3.365zm-3.364 8.313h3.364a3.365 3.365 0 1 1-3.364 3.364v-3.364z" fill="#FFF" fill-rule="nonzero"/>
    </g>
</svg>
