<svg width="25" height="25" viewBox="0 0 25 25" xmlns="http://www.w3.org/2000/svg">
    <g fill="none" fill-rule="evenodd" opacity=".75">
        <path d="M3 3h19v19H3z"/>
        <path d="M17.25 9.333h1.583c.438 0 .792.355.792.792v9.5a.792.792 0 0 1-.792.792H6.167a.792.792 0 0 1-.792-.792v-9.5c0-.437.354-.792.792-.792H7.75v-.791a4.75 4.75 0 1 1 9.5 0v.791zm-1.583 0v-.791a3.167 3.167 0 0 0-6.334 0v.791h6.334zm-3.959 4.75v1.584h1.584v-1.584h-1.584zm-3.166 0v1.584h1.583v-1.584H8.542zm6.333 0v1.584h1.583v-1.584h-1.583z" fill="#FFF" fill-rule="nonzero"/>
    </g>
</svg>
