<svg width="25" height="25" viewBox="0 0 25 25" xmlns="http://www.w3.org/2000/svg">
    <g fill="none" fill-rule="evenodd" opacity=".75">
        <path d="M3 3h19v19H3z"/>
        <path d="M10.917 18.634v-2.65c0-1.016.787-1.815 1.953-2.271a6.715 6.715 0 0 0-2.35-.421 6.699 6.699 0 0 0-3.995 1.314 6.347 6.347 0 0 0 4.392 4.028zm7.03-2.9c-.313-.421-1.354-.859-2.676-.859-1.588 0-2.771.631-2.771 1.108v2.85a6.33 6.33 0 0 0 5.447-3.098zm-7.387-3.63a1.781 1.781 0 1 0 0-3.562 1.781 1.781 0 0 0 0 3.562zm4.71.792a1.583 1.583 0 1 0 0-3.167 1.583 1.583 0 0 0 0 3.167zm-2.77 7.52a7.917 7.917 0 1 1 0-15.832 7.917 7.917 0 0 1 0 15.833z" fill="#FFF" fill-rule="nonzero"/>
    </g>
</svg>
