<svg width="25" height="25" viewBox="0 0 25 25" xmlns="http://www.w3.org/2000/svg">
    <g fill="none" fill-rule="evenodd" opacity=".75">
        <path d="M3 3h19v19H3z"/>
        <path d="M19.625 5.375c.437 0 .792.354.792.792v12.666a.792.792 0 0 1-.792.792H5.375a.792.792 0 0 1-.792-.792V6.167c0-.438.355-.792.792-.792h14.25zm-9.184 3.958H8.858l-2.534 6.334H8.03l.317-.792h2.605l.316.792h1.706l-2.532-6.334zm7.6 0h-1.583v1.584h-.791a2.375 2.375 0 0 0-.14 4.746l.14.004h2.375V9.333zM16.459 12.5v1.583h-.791l-.093-.005a.792.792 0 0 1 0-1.572l.093-.006h.791zm-6.809-.883.67 1.675h-1.34l.67-1.675z" fill="#FFF" fill-rule="nonzero"/>
    </g>
</svg>
