<svg width="24" height="24" viewBox="0 0 24 24" xmlns="http://www.w3.org/2000/svg">
    <g fill="none" fill-rule="evenodd">
        <path d="M21.12 21.12H2.88V2.88h18.24z"/>
        <path d="M12 18.84c.836 0 1.52-.684 1.52-1.52S12.836 15.8 12 15.8s-1.52.684-1.52 1.52.684 1.52 1.52 1.52zM12 8.2c.836 0 1.52-.684 1.52-1.52S12.836 5.16 12 5.16s-1.52.684-1.52 1.52S11.164 8.2 12 8.2zm0 5.32c.836 0 1.52-.684 1.52-1.52s-.684-1.52-1.52-1.52-1.52.684-1.52 1.52.684 1.52 1.52 1.52z" fill="#5E6267" fill-rule="nonzero"/>
    </g>
</svg>
