<svg width="178" height="50" viewBox="0 0 178 50" xmlns="http://www.w3.org/2000/svg">
    <g fill="#B53EF0" fill-rule="evenodd">
        <g fill-rule="nonzero">
            <path d="M70.33 44.542a3.98 3.98 0 0 0-.36-.336c.111.082.23.17.341.26l.018.076M70.33 11.042a3.99 3.99 0 0 0-.36-.337c.111.083.23.17.341.26l.018.077M67.102 29.065c-.339.271-.629.407-.871.407-.213 0-.32-.136-.32-.407 0-.396.122-.961.365-1.696l.008-.022c.391-1.232 1.057-2.566 1.512-3.412a8.387 8.387 0 0 1 .49-.872v-.001c.2-.306.4-.553.603-.743.097-.1.145-.19.145-.271 0-.12-.067-.225-.203-.316a2.673 2.673 0 0 0-.951-.415l-.004-.001a1.879 1.879 0 0 0-.392-.07 2.068 2.068 0 0 0-1.38.369 1.876 1.876 0 0 0-.25.253c-.01 0-.015.005-.015.014l-.015.016c0 .01-.005.015-.014.015a.397.397 0 0 0-.073.105c-.59.894-1.104 1.933-1.54 3.117-.784 2.149-1.176 3.805-1.176 4.97v.225c.01.653.27 1.18.784 1.581.204.14.47.211.8.211.987 0 1.98-.497 2.977-1.49.678-.684 1.293-1.542 1.845-2.576l.014.015c-.135.412-.266.834-.392 1.265-.155.492-.232.939-.232 1.34 0 .131.01.262.029.392.106.713.716 1.07 1.83 1.07.707 0 1.375-.186 2.005-.558.112-.067.174-.138.277-.222l.047-.042c.016-.02.218-.198.49-.54.2-.253.439-.568.677-.908a7.416 7.416 0 0 0 .453-.688c.217-.356.405-.713.52-1.032h-.001c.14-.324.268-.665.384-1.025.098-.291.166-.557.207-.798.214.09.44.135.678.135.214 0 .437-.035.669-.105.677-.191 1.249-.462 1.714-.813.174-.13.276-.196.305-.196.067 0 .102.035.102.105 0 .071-.042.21-.125.416l-.005.014-.742 1.964-.305.783c-.232.613-.349 1.155-.349 1.627 0 .341.063.642.189.903.329.633 1.099.949 2.31.949.322 0 .66-.06 1.013-.182h.002c.044-.031.836-.378 1.977-1.915h.001c.213-.309.403-.63.566-.963 0-.003.002-.005.003-.007a7.71 7.71 0 0 0 .697-2.336c.37.412.906.777 1.609 1.096.765.342 1.225.562 1.38.663l.029.015c.32.18.538.331.654.452.425.36.687.712.784 1.054l-.16-.136c-.096-.08-.247-.12-.45-.12-.068.231-.276.434-.625.61-.348.176-.639.266-.871.27-.232.006-.363.008-.392.008-.407 0-.741-.15-1.002-.452a.555.555 0 0 1-.103-.316c0-.21.064-.392.19-.542.164-.2.377-.356.639-.467.27-.14.406-.22.406-.24 0-.262-.1-.41-.297-.445a2.95 2.95 0 0 0-.4-.053c-.281 0-.566.076-.857.227-.561.3-.886.838-.973 1.61v.076a1.974 1.974 0 0 0 .076.554c.06.2.372 1.01 1.546 1.388.216.043.42.078.609.103.248.031.472.048.674.048.388 0 .775-.04 1.162-.12 1.143-.231 1.983-.676 2.52-1.333.137-.168.256-.336.358-.505v-.001c.576-.992.147-2.152.094-2.287a.073.073 0 0 0-.006-.011v-.001c-.208-.424-.566-.806-1.077-1.148a13.75 13.75 0 0 0-1.526-.843 9.16 9.16 0 0 1-1.038-.572c-.276-.181-.414-.377-.414-.588.009-.24.116-.472.32-.692.31-.311.703-.57 1.183-.776.48-.206.927-.309 1.344-.309.552 0 1.007.09 1.365.272h-.29c-.204.02-.349.055-.436.105-.039.21-.242.342-.61.392-.581.09-.891.306-.93.647 0 .322.138.575.414.76.276.187.574.28.894.28.639 0 1.195-.196 1.67-.588.503-.432.755-.938.755-1.52 0 0 .023-.211-.049-.501l-.002-.008c-.107-.428-.42-1.025-1.311-1.379h-.003l-.001-.001a6.396 6.396 0 0 0-1.815-.28c-.608 0-1.185.07-1.732.212-.004 0-.012.003-.025.007a6.047 6.047 0 0 0-1.79.794c-.05.03-.1.06-.15.092-.507.314-1.005.714-1.348 1.201a.044.044 0 0 0-.005.007c-.4.608-.6 1.192-.6 1.752 0 .326.067.633.2.92l-.142.195c-.087.16-.223.386-.407.677-.833 1.396-1.516 2.334-2.048 2.816-.175.16-.33.241-.465.241a.174.174 0 0 1-.102-.03 1.11 1.11 0 0 0-.029.225v.106a.956.956 0 0 1-.145-.527c0-.391.043-.677.13-.858.252-1.034.64-2.113 1.163-3.238.668-1.485 1.011-2.47 1.03-2.95l.016-.197a2.02 2.02 0 0 0-.027-.339v-.005c-.177-.905-1.167-.667-1.225-.653l-.003.001a2.63 2.63 0 0 0-.692.349c-.33.23-.673.501-1.03.813a14.09 14.09 0 0 1-1.337 1.031c-.465.317-.95.525-1.453.625l.174-.18a4.21 4.21 0 0 0 .261-.286c-.387-.09-.58-.287-.58-.588 0-.31.155-.547.464-.708.097-.04.19-.06.276-.06.223 0 .335.151.335.452-.01.13-.088.28-.233.451v.016c.068.04.145.06.233.06.29 0 .61-.103.958-.309.349-.205.547-.48.596-.82 0-.282-.092-.522-.275-.72l-.023-.023c-.133-.13-.841-.742-2.09-.438-.043.021-.084.043-.125.066a4.939 4.939 0 0 0-1.554 1.4c-.446.603-.703 1.093-.77 1.47-.068.376-.102.623-.102.745 0 .444.153.823.458 1.137l-.037.052c-.252.34-.488.687-.711 1.039a12.054 12.054 0 0 1-1.845 2.244c-.368.351-.649.526-.843.526h-.014c-.039.111-.058.252-.058.422v.075a1.134 1.134 0 0 1-.16-.587c0-.361.107-.873.32-1.536.164-.491.338-.978.522-1.46l.003-.008.005-.012c.048-.116.3-.74.57-1.462.08-.21.16-.43.237-.646.002-.002.003-.005.003-.007.453-1.194.679-1.984.679-2.368 0-.22-.034-.397-.102-.527-.271-.422-.727-.632-1.366-.632a.984.984 0 0 0-.856.437c-.204.29-.485.944-.843 1.957a14.005 14.005 0 0 1-2.048 3.84 9.003 9.003 0 0 1-1.613 1.686M97.331 23.72c.59-.543 1.152-.814 1.686-.814.348 0 .62.096.813.285.193.193.29.418.29.68 0 .56-.31.982-.931 1.264-.476.221-1.082.332-1.83.332-.493 0-.886-.1-1.175-.3a5.315 5.315 0 0 1 1.147-1.447m14.284-1.136c-.141-.386-.469-.854-1.206-1.182-.003 0-.003 0-.003-.004a6.338 6.338 0 0 0-1.875-.3c-.458 0-.896.043-1.316.122-.031.003-.059.01-.09.017-.031.007-.066.011-.097.018l-.013.004c-.8.178-1.534.5-2.202.972 0-.004.003-.008.007-.011-1.062.743-1.575 1.6-1.627 1.693-.003.003-.003.007-.003.007-.207.429-.31.843-.31 1.247 0 .236.034.46.106.679-.051.06-.106.128-.165.207a8.363 8.363 0 0 0-.362.571 9.426 9.426 0 0 1-1.526 1.854c-.958.883-2.016 1.326-3.167 1.326-.92 0-1.558-.208-1.91-.626-.354-.417-.53-.875-.53-1.378 0-.279.048-.593.145-.933l.086-.318a1.986 1.986 0 0 1-.114-.646c0-.1.007-.186.028-.257l.045-.104c.161.571.489 1.025.978 1.36.365.255.751.412 1.155.473 0 0 2.322.164 3.938-1.908h.004c.413-.557.685-1.108.823-1.658l.014-.028c.059-.222.09-.432.09-.633 0-.914-.507-1.553-1.513-1.914-.3-.061-.61-.09-.93-.09-.37 0-.752.043-1.148.13-3.105.781-5.317 3.171-5.393 3.257h-.003c-.448.614-.776 1.125-.979 1.536l-.29.636a4.107 4.107 0 0 0-.365 1.654c0 .582.142 1.154.42 1.718.38.672.914 1.172 1.6 1.504.737.354 1.543.529 2.426.529.468 0 .961-.05 1.478-.147a6.9 6.9 0 0 0 .734-.167 6.914 6.914 0 0 0 1.816-.862c.096-.064.19-.128.279-.192l.003-.004c.442-.304.83-.654 1.175-1.047l.06-.06.05-.065c.018-.018.028-.032.035-.039l.01-.014a6.977 6.977 0 0 0 1.127-2.012c.114-.31.193-.632.242-.967.365.482.95.907 1.75 1.268.765.342 1.223.564 1.379.664l.03.014c.318.182.538.333.652.45.427.361.689.715.786 1.054l-.159-.132c-.096-.082-.248-.121-.451-.121-.07.228-.276.432-.624.607-.348.179-.641.268-.872.271-.234.008-.365.008-.393.008-.406 0-.74-.15-1.003-.45a.574.574 0 0 1-.1-.315.82.82 0 0 1 .187-.543c.165-.2.379-.357.64-.468.273-.14.407-.221.407-.24 0-.26-.1-.41-.296-.446a3.62 3.62 0 0 0-.4-.053 1.86 1.86 0 0 0-.858.228c-.562.3-.886.836-.972 1.611v.075a1.887 1.887 0 0 0 .035.386c.038.175.148.536.455.879v.004c.027.032.058.064.09.092.25.247.613.476 1.13.597.003 0 .003 0 .003.003.145.033.303.061.472.08h.01c.262.035.497.053.71.053.386 0 .772-.04 1.162-.122 1.14-.228 1.981-.675 2.519-1.332a4.09 4.09 0 0 0 .451-.672c.18-.414.241-.75.241-1.046 0-.168-.02-.322-.052-.472l-.01-.032a2.123 2.123 0 0 0-.344-.861l-.007-.007s-.004 0-.004-.004c-.213-.31-.517-.596-.906-.857a13.78 13.78 0 0 0-1.527-.847c-.417-.2-.761-.39-1.037-.571-.276-.179-.413-.375-.413-.586.006-.243.113-.472.317-.693.31-.31.706-.568 1.185-.775.48-.208.927-.311 1.344-.311.551 0 1.006.093 1.365.271h-.29c-.203.022-.348.058-.438.108-.038.21-.24.339-.61.392-.578.09-.889.304-.93.647 0 .322.141.575.417.761.276.186.572.279.893.279.637 0 1.195-.197 1.67-.59.504-.432.756-.936.756-1.522 0 0 .041-.3-.097-.682M117.45 20.334c.578-1.319 1.188-2.165 1.829-2.547.203-.122.41-.18.624-.18.213 0 .32.105.32.315 0 .3-.117.604-.348.904-.555.722-1.447 1.404-2.688 2.047.145-.329.231-.51.262-.54m-.51 3.162c.331-.254.641-.379.93-.379.349 0 .614.197.8.59.107.278.159.575.159.886 0 .232-.052.528-.16.89-.299.964-.809 1.821-1.526 2.575l.073-.032a.973.973 0 0 0 .213-.136c.09-.068.193-.168.31-.3-.63.925-1.278 1.572-1.946 1.943a1.15 1.15 0 0 1-.493.136c-.386 0-.583-.332-.583-.993 0-.825.21-1.78.628-2.862.375-.993.91-1.768 1.595-2.318m3.022-3.133a7.978 7.978 0 0 0 1.175-.904c.545-.493.813-.928.813-1.31v-.104c0-.583-.306-1.058-.92-1.426a3.935 3.935 0 0 0-2.04-.546c-.861 0-1.567.19-2.115.571-.548.383-1.003.897-1.372 1.55-.08.147-.162.297-.238.45h-.003v.008l-.003.004c-.004.003-.004.007-.004.01-.5.954-.975 2-1.43 3.133v.004l-.176.4c-.403.936-.775 1.84-.958 2.415-.01.035-.024.068-.03.1-.139.439-.273.896-.41 1.368l-.8 2.65c-.186.533-.276.983-.276 1.354 0 .133.007.258.028.376l.003.032v.007c.024.132.3 1.518 2.264 1.582.207-.01.365-.053.48-.128a2.887 2.887 0 0 1-.132-.904l.014-.482c.176.682.524 1.14 1.047 1.368.183.082.317.121.407.121l.041.015a3.93 3.93 0 0 0 2.326-.422c.1-.046.2-.096.3-.15 0 0 .004 0 .004-.004 1.157-.628 1.888-1.543 2.402-2.364 0-.007.03-.068.03-.079.249-.375.466-.768.662-1.164.004-.004.004-.008.004-.011.003 0 .003-.004.003-.007.003-.004.003-.008.003-.008.225-.46.407-.932.559-1.421a6.657 6.657 0 0 0 .258-1.78c0-.81-.196-1.514-.592-2.107-.417-.632-.976-1.007-1.672-1.129a2.943 2.943 0 0 0-.32-.014c-.348 0-.762.06-1.234.179-.593.142-1.072.292-1.437.453l1.247-.564 2.092-1.122zM140.137 20.334c.583-1.319 1.193-2.165 1.83-2.547.204-.122.414-.18.624-.18.214 0 .32.105.32.315 0 .3-.117.604-.348.904-.55.722-1.447 1.404-2.687 2.047.144-.329.234-.51.261-.54m-.506 3.162c.327-.254.637-.379.927-.379.348 0 .617.197.8.59.106.278.161.575.161.886 0 .232-.055.528-.162.89a9.989 9.989 0 0 1-.117.346v.003c0 .004-.003.004-.003.007-.166.668-.572 1.369-.865 1.812.017-.018.038-.04.055-.061-.052.075-.1.146-.159.218-.055.078-.1.143-.137.193a.349.349 0 0 1-.042.053l-.034.043c-.51.657-1.034 1.136-1.572 1.436-.186.09-.351.136-.496.136-.386 0-.579-.332-.579-.993 0-.825.207-1.78.624-2.862.375-.993.91-1.768 1.599-2.318m-6.103 7.498c.134-.132.262-.271.382-.418.007.025.014.054.025.086a7.594 7.594 0 0 1-.407.332m9.122-10.63a8.205 8.205 0 0 0 1.178-.905c.541-.493.813-.928.813-1.31v-.104c0-.583-.31-1.058-.923-1.426a3.926 3.926 0 0 0-2.04-.546c-.862 0-1.568.19-2.113.571-.547.383-1.006.897-1.375 1.55-.079.147-.158.297-.237.45h-.004v.008l-.003.004c0 .003-.004.007-.004.01-.09.19-.772 1.64-1.426 3.133-.004 0-.004.004-.004.004l-.238.607c.021-.068.042-.14.066-.207l-.961 2.415-.031.1c-.135.439-.273.896-.41 1.368l-.19.625c-.81 1.383-1.53 2.368-2.164 2.958-.166.14-.314.221-.452.24l-.013.153.013.328a1.21 1.21 0 0 1-.23-.735v-.183c.027-.7.403-1.847 1.116-3.432.214-.5.39-.94.524-1.311.244-.64.365-1.24.365-1.79l-.031-.333s-.127-.91-.989-1.346c-.003 0-.003-.004-.003-.004a1.42 1.42 0 0 0-.22-.057 3.462 3.462 0 0 0-.587-.054c-.679 0-1.382.336-2.109 1.011-.337.29-.672.622-1.002.994a22.407 22.407 0 0 0-2.295 2.918v-.014c0-.029.03-.115.09-.254a46.412 46.412 0 0 1 1.798-3.886.495.495 0 0 0 .072-.211c0-.079-.065-.157-.203-.225a2.505 2.505 0 0 0-.493-.218c0-.004-.003-.004-.003-.004h-.004a2.207 2.207 0 0 0-.158-.046h-.004c-.368-.093-1.268-.218-2.064.453v.004a2.811 2.811 0 0 0-.396.593c-.131.254-.272.557-.43.911l-.004.003v.004c0 .004-.004.007-.004.01 0 0-.003 0-.003.004l-.004.008c-.155.393-1.764 4.386-2.033 5.211v.004a.505.505 0 0 0-.02.072l.006-.015c-.248.847-.368 1.38-.368 1.59 0 .532.155.996.465 1.4.348.422.806.632 1.378.632.214 0 .37-.042.466-.128.096-.086.182-.225.261-.414.359-.994 1.017-2.205 1.975-3.63.958-1.425 1.83-2.618 2.616-3.583a8.98 8.98 0 0 1 .668-.732c.193-.186.334-.279.42-.279.07 0 .104.072.104.21-.01.133-.055.315-.131.544a26.337 26.337 0 0 1-.962 2.365c-.22.493-.434.99-.637 1.49-.31.742-.465 1.407-.465 1.99 0 .328.048.631.145.9.282.764 1.04 1.192 2.28 1.282h.104c.851 0 1.606-.247 2.264-.74.214-.157.417-.332.607-.518.2.454.737 1.19 2.153 1.236.207-.01.366-.053.48-.128a2.887 2.887 0 0 1-.132-.904l.014-.482c.176.682.524 1.14 1.048 1.368.182.082.32.121.406.121l.045.015a3.916 3.916 0 0 0 2.323-.422l.3-.15c.003 0 .003 0 .006-.004 1.162-.632 1.885-1.543 2.402-2.368 0-.01.031-.068.031-.075.245-.375.465-.768.658-1.164.004-.004.004-.008.007-.011 0 0 0-.004.004-.007 0-.004.003-.008.003-.008.22-.46.407-.932.555-1.421a6.667 6.667 0 0 0 .262-1.78c0-.81-.2-1.514-.596-2.107-.417-.632-.972-1.007-1.672-1.129a2.943 2.943 0 0 0-.32-.014c-.348 0-.758.06-1.234.179-.589.142-1.068.292-1.437.453l1.248-.564 2.092-1.122z"/>
            <path d="M78.734 36.981c-15.903 4.303-17.819-1.765-17.613-5.588.076-.763.244-1.664.505-2.704.238-.949.552-2.012.945-3.193l.61-1.565c1.18-3.012 2.47-5.672 3.863-7.98.112-.185.224-.363.336-.535l.004-.007c.061-.1.843-1.367 1.57-2.285a6.35 6.35 0 0 1 .603-.678s.245-.439-.012-.718a.445.445 0 0 0-.067-.06c-.752-.589-1.326-.888-1.722-.898h-.61c-.784 0-1.501.397-2.15 1.19-.968 1.214-1.963 3.089-2.985 5.623a76.894 76.894 0 0 0-2.578 7.432V27.8c-.136-.311-.286-.918-.45-1.822-.097-.452-.155-1.008-.175-1.67v-2.953c0-2.865.029-5.04.086-6.523v-.004l.001-.042c.004-.174.015-.838-.038-1.474a6.834 6.834 0 0 0-.059-.497c-.132-.82-.927-1.098-.955-1.107a.968.968 0 0 0-.473-.125h-.58c-.659 0-1.335.105-2.027.316-.692.21-1.223.442-1.59.693.31.24.465.738.465 1.49 0 .984-.2 2.315-.596 3.99a56.239 56.239 0 0 1-1.002 3.63c-.27.856-.58 1.675-.935 2.458v.002l-.004.009a32.104 32.104 0 0 1-1.527 3.218c-1.05 1.905-2.451 3.813-3.564 3.082a.576.576 0 0 1-.071-.05l.002.004c.027.07.447 1.09 1.701 1.61.321.134.698.234 1.136.277h.003c.949-.054 1.812-.499 2.59-1.334a6.28 6.28 0 0 0 .755-.949l.248-.407c.823-1.325 1.636-3.217 2.44-5.676l.799-2.35c.058.643.107 1.275.145 1.898.117 1.496.262 3.002.436 4.517l.101.573c1.505 16.84 21.544 10.61 21.544 10.61 23.162-5.576 39.348 1.76 39.348 1.76.652-1.512-.414-2.916-.414-2.916-2.655-3.17-15.765-7.083-38.04-1.057"/>
            <path d="M51.466 20.012c-.245.83-.604 1.897-1.098 3.032l-.327.028-5.83.5C28.094 37.176 15.001 42.526 5.774 35.483c-3.525-3.61-4.138-6.845-4.135-10.32A2.435 2.435 0 0 1 .524 22.84c.138-1.325 1.286-2.281 2.562-2.137 1.277.144 2.2 1.334 2.061 2.657a2.424 2.424 0 0 1-.897 1.65c-.173 3.628.99 6.648 3.899 8.873 10.157 5.668 22.233-2.365 34.641-12.809C31.28 9.678 19.918.736 9.385 5.513c-3.122 2.004-4.512 4.978-4.583 8.689a2.44 2.44 0 0 1 1.066 2.293c-.14 1.323-1.287 2.279-2.564 2.135-1.276-.143-2.199-1.333-2.06-2.656a2.423 2.423 0 0 1 .927-1.673c.215-3.717.942-7.076 4.97-10.586 9.751-6.242 22.382.191 37.38 15.106l6.737 1.156.208.035zM168.57 25.516c-1.362 2.411-4.363 3.232-6.695 1.82-2.334-1.41-3.124-4.522-1.763-6.94 1.36-2.417 4.363-3.232 6.695-1.82 2.332 1.403 3.118 4.524 1.763 6.94m-.526-9.144a7.121 7.121 0 0 0-3.664-1.037l-.141.002c-3.966.105-7.154 3.473-7.154 7.61 0 4.205 3.29 7.614 7.344 7.614.318 0 .63-.02.935-.062.062-.008.123-.016.185-.026 2.08-.36 3.997-1.64 5.14-3.673 2.043-3.63.858-8.31-2.645-10.428"/>
            <path d="M164.257 20.247c-1.443.047-2.576 1.298-2.53 2.794.044 1.496 1.251 2.67 2.694 2.624 1.444-.047 2.577-1.298 2.531-2.795-.045-1.496-1.252-2.67-2.695-2.623M140.874 27.242c-.182.272-.303.455-.364.516l.061-.152c.09-.122.211-.243.303-.364M160.757 26.563c-2.945 2.99-6.06 4.502-9.261 4.502-.163 0-.328-.004-.49-.012-2.92-.142-5.286-1.513-6.82-2.714.013-.029.03-.058.043-.087l.111-.115v-.004l.004-.002v-.113c.215-.463.39-.92.534-1.401l.074-.28c1.272 1.082 3.463 2.537 6.163 2.66 2.799.13 5.573-1.185 8.253-3.903l1.39 1.47zM13.308 48.162v-1.8h-2.344v1.8h-.316v-3.786h.316v1.691h2.344v-1.69h.315v3.785zM17.751 46.788c0-.607-.349-1.169-.98-1.169-.621 0-.976.562-.976 1.17 0 .612.355 1.174.975 1.174.632 0 .981-.562.981-1.175m-2.26 0c0-.8.498-1.436 1.28-1.436.792 0 1.29.636 1.29 1.436 0 .8-.498 1.442-1.29 1.442-.782 0-1.28-.641-1.28-1.442M21.718 48.162v-.403c-.216.25-.576.47-.964.47-.543 0-.842-.26-.842-.879v-1.93h.288v1.862c0 .534.26.681.649.681.343 0 .692-.21.87-.454v-2.088h.288v2.74h-.289zM23.78 47.793l.171-.216c.172.222.488.403.865.403.449 0 .715-.238.715-.556 0-.75-1.69-.324-1.69-1.311 0-.42.349-.76.953-.76.46 0 .764.18.958.402l-.16.21c-.156-.215-.444-.363-.798-.363-.416 0-.665.216-.665.5 0 .686 1.684.266 1.684 1.322 0 .443-.332.806-1.003.806-.432 0-.764-.13-1.03-.437M27.825 45.42h.886v2.742h-.886V45.42zm-.239-.658c0-.125.324-.221.682-.221.375 0 .682.096.682.221s-.307.227-.682.227c-.358 0-.682-.102-.682-.227M31.764 48.162v-1.856c0-.528-.26-.687-.648-.687-.344 0-.699.222-.87.471v2.072h-.288V45.42h.288v.414c.194-.239.576-.483.964-.483.543 0 .842.273.842.891v1.919h-.288zM36.03 47.452V46.12c-.155-.267-.51-.5-.88-.5-.594 0-.937.505-.937 1.17 0 .663.343 1.163.936 1.163.372 0 .726-.233.881-.5m-1.967 1.408.166-.238c.233.283.488.385.893.385.482 0 .908-.25.908-.868v-.437a1.143 1.143 0 0 1-.93.517c-.71 0-1.192-.551-1.192-1.43 0-.869.482-1.437 1.191-1.437.383 0 .715.199.931.511v-.442h.294v2.718c0 .834-.554 1.135-1.202 1.135-.455 0-.743-.085-1.059-.414M40.673 47.628l.205-.244c.239.278.627.55 1.159.55.753 0 .97-.43.97-.754 0-1.113-2.217-.534-2.217-1.856 0-.619.543-1.01 1.213-1.01.549 0 .97.198 1.253.533l-.211.239c-.266-.33-.643-.477-1.058-.477-.493 0-.865.29-.865.698 0 .97 2.217.437 2.217 1.85 0 .488-.316 1.073-1.314 1.073-.61 0-1.069-.256-1.352-.602M47.306 46.788c0-.607-.35-1.169-.98-1.169-.622 0-.976.562-.976 1.17 0 .612.354 1.174.975 1.174.632 0 .98-.562.98-1.175m-2.26 0c0-.8.499-1.436 1.28-1.436.792 0 1.291.636 1.291 1.436 0 .8-.499 1.442-1.29 1.442-.782 0-1.28-.641-1.28-1.442M49.467 47.634v-3.258h.384v3.212c0 .222.118.375.37.375.17 0 .317-.062.398-.13l.148.227c-.14.102-.31.17-.606.17-.465 0-.694-.221-.694-.596M53.8 48.162v-.403c-.216.25-.577.47-.964.47-.544 0-.843-.26-.843-.879v-1.93h.288v1.862c0 .534.26.681.649.681.343 0 .692-.21.87-.454v-2.088h.288v2.74H53.8zM56.149 47.634v-1.952h-.443v-.261h.443v-.75h.294v.75h.543v.26h-.543v1.907c0 .222.088.375.277.375a.413.413 0 0 0 .299-.13l.11.227c-.105.102-.232.17-.454.17-.354 0-.526-.221-.526-.596M58.886 45.42h.887v2.742h-.887V45.42zm-.238-.658c0-.125.324-.221.682-.221.375 0 .681.096.681.221s-.306.227-.681.227c-.358 0-.682-.102-.682-.227M63.13 46.788c0-.607-.349-1.169-.98-1.169-.621 0-.976.562-.976 1.17 0 .612.355 1.174.976 1.174.631 0 .98-.562.98-1.175m-2.26 0c0-.8.498-1.436 1.28-1.436.792 0 1.29.636 1.29 1.436 0 .8-.498 1.442-1.29 1.442-.782 0-1.28-.641-1.28-1.442M67.098 48.162v-1.856c0-.528-.26-.687-.649-.687-.343 0-.698.222-.87.471v2.072h-.288V45.42h.288v.414c.194-.239.577-.483.964-.483.543 0 .843.273.843.891v1.919h-.288zM73.037 48.162v-1.618l-1.468-2.168h.382l1.247 1.862 1.247-1.862h.382l-1.468 2.168v1.618zM77.863 46.788c0-.607-.349-1.169-.98-1.169-.621 0-.976.562-.976 1.17 0 .612.355 1.174.976 1.174.631 0 .98-.562.98-1.175m-2.26 0c0-.8.498-1.436 1.28-1.436.792 0 1.29.636 1.29 1.436 0 .8-.498 1.442-1.29 1.442-.782 0-1.28-.641-1.28-1.442M81.83 48.162v-.403c-.216.25-.576.47-.964.47-.543 0-.842-.26-.842-.879v-1.93h.288v1.862c0 .534.26.681.649.681.343 0 .692-.21.87-.454v-2.088h.288v2.74h-.289zM84.385 45.454l-.322-.163c.355-.15.62-.415.643-.633a.357.357 0 0 1-.11.013c-.267 0-.455-.122-.455-.286 0-.156.21-.293.476-.293.3 0 .566.157.566.436 0 .382-.366.736-.798.926M87.166 48.162l-1.13-2.741h.321l.976 2.395.964-2.395h.326l-1.13 2.74zM91.35 45.608c-.632 0-.948.567-.97 1.044h1.945c-.006-.465-.305-1.044-.975-1.044m-1.28 1.18c0-.794.543-1.436 1.285-1.436.815 0 1.263.659 1.263 1.453v.08H90.38c.028.596.415 1.09 1.047 1.09.338 0 .648-.131.876-.38l.15.192a1.365 1.365 0 0 1-1.048.443c-.781 0-1.335-.596-1.335-1.442M98.359 44.722l-.876 2.214h1.746l-.87-2.214zm1.34 3.44-.365-.931h-1.956l-.366.93h-.366l1.513-3.785h.394l1.512 3.786H99.7zM101.705 47.634v-3.258h.384v3.212c0 .222.118.375.37.375.17 0 .317-.062.399-.13l.148.227c-.141.102-.31.17-.606.17-.466 0-.695-.221-.695-.596M106.526 48.162l-.748-2.344-.754 2.344h-.277l-.87-2.741h.31l.71 2.326.753-2.326h.25l.753 2.326.71-2.326h.31l-.87 2.74zM111.296 47.475v-1.357c-.155-.26-.504-.499-.88-.499-.594 0-.937.51-.937 1.175 0 .664.343 1.17.936 1.17.377 0 .726-.228.881-.489m0 .687v-.437a1.133 1.133 0 0 1-.93.505c-.71 0-1.192-.556-1.192-1.436 0-.868.482-1.442 1.192-1.442.382 0 .714.2.93.511v-.442h.294v2.74h-.294zM113.562 48.86l.172-.238c.2.266.477.385.815.385.532 0 .853-.317.853-.868v-.409c-.216.25-.576.471-.964.471-.543 0-.842-.26-.842-.88v-1.9h.288v1.838c0 .528.26.676.648.676.344 0 .693-.21.87-.454v-2.06h.288v2.718c0 .812-.56 1.135-1.141 1.135-.443 0-.732-.142-.987-.414M117.463 47.793l.172-.216c.172.222.488.403.864.403.45 0 .715-.238.715-.556 0-.75-1.69-.324-1.69-1.311 0-.42.35-.76.953-.76.46 0 .765.18.959.402l-.16.21c-.156-.215-.444-.363-.799-.363-.415 0-.665.216-.665.5 0 .686 1.685.266 1.685 1.322 0 .443-.333.806-1.003.806-.432 0-.765-.13-1.03-.437M126.617 46.272c0-.886-.554-1.6-1.535-1.6h-.865v3.195h.865c.975 0 1.535-.71 1.535-1.595m-2.715 1.89v-3.786h1.18c1.147 0 1.867.857 1.867 1.896 0 1.05-.72 1.89-1.867 1.89h-1.18zM128.833 48.162V45.42h.314v.47c.248-.306.58-.527.985-.527v.323c-.054-.011-.096-.011-.157-.011-.296 0-.695.25-.828.488v1.998h-.314zM132.828 45.608c-.632 0-.948.567-.97 1.044h1.945c-.006-.465-.305-1.044-.975-1.044m-1.28 1.18c0-.794.543-1.436 1.285-1.436.815 0 1.264.659 1.264 1.453v.08h-2.239c.028.596.416 1.09 1.047 1.09.338 0 .649-.131.876-.38l.15.192a1.365 1.365 0 0 1-1.048.443c-.781 0-1.335-.596-1.335-1.442M137.92 47.475v-1.357c-.155-.26-.504-.499-.881-.499-.593 0-.937.51-.937 1.175 0 .664.344 1.17.937 1.17.377 0 .726-.228.88-.489m0 .687v-.437a1.133 1.133 0 0 1-.93.505c-.71 0-1.191-.556-1.191-1.436 0-.868.482-1.442 1.191-1.442.382 0 .715.2.93.511v-.442h.294v2.74h-.293zM143.405 48.162v-1.919c0-.385-.16-.624-.537-.624-.288 0-.615.216-.765.466v2.077h-.294v-1.919c0-.385-.155-.624-.532-.624-.288 0-.61.222-.77.471v2.072h-.288V45.42h.288v.414c.111-.176.477-.483.865-.483.415 0 .637.25.703.517.15-.256.51-.517.887-.517.493 0 .731.284.731.835v1.975h-.288zM146.83 45.608c-.632 0-.948.567-.97 1.044h1.945c-.006-.465-.305-1.044-.976-1.044m-1.28 1.18c0-.794.543-1.436 1.286-1.436.814 0 1.263.659 1.263 1.453v.08h-2.238c.027.596.415 1.09 1.047 1.09.338 0 .648-.131.876-.38l.15.192a1.365 1.365 0 0 1-1.048.443c-.782 0-1.336-.596-1.336-1.442M151.921 47.475v-1.357a1.064 1.064 0 0 0-.88-.499c-.594 0-.937.51-.937 1.175 0 .664.343 1.17.936 1.17.377 0 .726-.228.881-.489m0 .687v-.437a1.133 1.133 0 0 1-.93.505c-.71 0-1.192-.556-1.192-1.436 0-.868.482-1.442 1.191-1.442.383 0 .72.2.931.511v-1.487h.294v3.786h-.294zM159.895 46.272c0-.96-.577-1.663-1.463-1.663-.892 0-1.463.704-1.463 1.663 0 .953.57 1.663 1.463 1.663.886 0 1.463-.71 1.463-1.663m-3.259 0c0-1.107.71-1.958 1.796-1.958 1.08 0 1.795.851 1.795 1.958s-.715 1.958-1.795 1.958c-1.086 0-1.796-.851-1.796-1.958M162.2 48.162v-2.48h-.444v-.261h.443v-.25c0-.54.283-.852.726-.852.133 0 .255.023.36.086l-.088.244a.446.446 0 0 0-.244-.063c-.305 0-.46.216-.46.585v.25h.543v.26h-.543v2.48h-.294z"/>
        </g>
        <text font-family="Archivo-Bold, Archivo" font-size="5.952" font-weight="bold">
                        <tspan x="168.813" y="13.333">TM</tspan>
                    </text>
    </g>
</svg>
