<svg width="96" height="50" viewBox="0 0 96 50" xmlns="http://www.w3.org/2000/svg">
    <g fill-rule="nonzero" fill="none">
        <path d="M26.425 40.202v-5.056c.01-3.32 2.715-6.008 6.057-6.02h3.117l2.672-7.699c1.146-3.31 4.282-5.535 7.807-5.538h13.19c5.04-.003 9.83 2.18 13.117 5.976l6.296 7.26h9.514c2.657.007 4.81 2.142 4.819 4.78v6.309" fill="#FFF"/>
        <path d="M93.014 40.75a.556.556 0 0 1-.558-.553v-6.292c-.003-2.342-1.914-4.24-4.272-4.242h-9.748l-6.464-7.45a16.78 16.78 0 0 0-12.699-5.787H46.084c-3.296.002-6.23 2.079-7.306 5.173l-2.788 8.064h-3.508c-3.046.006-5.513 2.458-5.516 5.483v5.056a.557.557 0 0 1-1.082 0v-5.056c.004-3.618 2.955-6.552 6.598-6.558h2.733l2.543-7.338c1.222-3.53 4.568-5.897 8.326-5.893h13.19a17.898 17.898 0 0 1 13.518 6.153l6.135 7.078H88.2c2.953.006 5.345 2.384 5.348 5.317v6.309a.556.556 0 0 1-.535.537z" fill="#282E42"/>
        <path d="M88.775 40.186h4.15c.924 0 1.673.744 1.673 1.661v1.756c0 .918-.75 1.662-1.673 1.662H26.604a1.667 1.667 0 0 1-1.673-1.662v-1.761c0-.918.749-1.662 1.673-1.662h4.378" fill="#FFF"/>
        <path d="M88.368 45.796H26.425a2.222 2.222 0 0 1-2.046-2.215v-1.74c0-1.223.998-2.215 2.23-2.215h4.378a.555.555 0 0 1 .422.538.555.555 0 0 1-.422.537h-4.383c-.616 0-1.115.496-1.115 1.108v1.755c0 .612.499 1.108 1.115 1.108h66.365c.616 0 1.116-.496 1.116-1.108v-1.722c0-.612-.5-1.108-1.116-1.108H88.82a.555.555 0 0 1-.422-.537c0-.254.174-.476.422-.537h4.15c1.231 0 2.23.992 2.23 2.215v1.756a2.222 2.222 0 0 1-2.114 2.215h-4.645l-.073-.05z" fill="#282E42"/>
        <rect fill="#FFF" x="41.472" y="9.951" width="24.12" height="5.943" rx="1.341"/>
        <path d="M64.237 16.426h-21.41a1.89 1.89 0 0 1-1.896-1.872v-3.257a1.89 1.89 0 0 1 1.896-1.883h21.41a1.89 1.89 0 0 1 1.896 1.883v3.257a1.89 1.89 0 0 1-1.896 1.872zm-21.41-5.943a.817.817 0 0 0-.578.239.806.806 0 0 0-.236.575v3.257c0 .446.364.808.814.808h21.41c.45 0 .814-.362.814-.808v-3.257a.806.806 0 0 0-.236-.575.817.817 0 0 0-.578-.239h-21.41z" fill="#282E42"/>
        <rect fill="#FFF" x="43.692" y="4.878" width="19.681" height="5.073" rx="1.143"/>
        <path d="M62.218 10.483H44.846a1.667 1.667 0 0 1-1.673-1.661v-2.77c0-.917.749-1.661 1.673-1.661h17.372c.918.015 1.658.75 1.673 1.661v2.77c0 .917-.749 1.661-1.673 1.661zM44.846 5.415a.611.611 0 0 0-.613.61v2.769c0 .337.273.612.613.615h17.372a.617.617 0 0 0 .614-.615v-2.77a.617.617 0 0 0-.614-.609H44.846z" fill="#282E42"/>
        <rect fill="#FFF" x="45.945" y=".691" width="15.169" height="4.187" rx=".944"/>
        <path d="M60.166 5.415H46.898a1.49 1.49 0 0 1-1.489-1.484V1.638A1.49 1.49 0 0 1 46.9.154h13.267a1.49 1.49 0 0 1 1.489 1.484v2.293a1.49 1.49 0 0 1-1.49 1.484zM46.898 1.228a.411.411 0 0 0-.412.41v2.293c0 .226.184.41.412.41h13.268a.411.411 0 0 0 .412-.41V1.638a.411.411 0 0 0-.412-.41H46.898z" fill="#282E42"/>
        <path d="m75.748 29.126-5.053-5.821a15.102 15.102 0 0 0-11.422-5.207h-3.83v11.01l20.305.018z" fill="#FFF"/>
        <path d="M76.924 29.663H54.901V17.567h4.378c4.544 0 8.862 1.965 11.829 5.383l5.816 6.713zm-20.946-1.108h18.587l-4.277-4.935a14.542 14.542 0 0 0-11.009-5.018h-3.301v9.953z" fill="#282E42"/>
        <path d="M46.084 18.098a6.043 6.043 0 0 0-5.71 4.044l-2.41 6.95h14.578V18.098h-6.458z" fill="#FFF"/>
        <path d="M53.083 29.646 37.2 29.63l2.66-7.66a6.561 6.561 0 0 1 6.218-4.403h7l.005 12.08zm-14.36-1.108h13.284v-9.902h-5.923a5.508 5.508 0 0 0-5.203 3.672l-2.158 6.23z" fill="#282E42"/>
        <path d="M45.253 42.185c0 3.998-3.263 7.239-7.289 7.239s-7.289-3.24-7.289-7.239c0-3.998 3.263-7.239 7.29-7.239 4.025 0 7.288 3.241 7.288 7.24z" fill="#FFF"/>
        <path d="M37.964 49.961c-3.469-.008-6.517-2.288-7.481-5.598a7.729 7.729 0 0 1 3.313-8.7 7.85 7.85 0 0 1 9.34.719 7.717 7.717 0 0 1 1.922 9.104 7.873 7.873 0 0 1-7.094 4.475zm0-14.477c-3.724.006-6.742 3.003-6.748 6.701a6.608 6.608 0 0 0 .63 2.83c1.414 3.013 4.838 4.542 8.045 3.592 3.208-.95 5.23-4.09 4.75-7.38-.478-3.29-3.313-5.735-6.66-5.743h-.017z" fill="#282E42"/>
        <path d="M89.065 42.185a7.244 7.244 0 0 1-4.499 6.697 7.332 7.332 0 0 1-7.951-1.567 7.208 7.208 0 0 1-1.584-7.895 7.295 7.295 0 0 1 6.74-4.474 7.277 7.277 0 0 1 5.17 2.107 7.175 7.175 0 0 1 2.124 5.132z" fill="#FFF"/>
        <path d="M81.77 49.961a7.808 7.808 0 0 1-7.213-4.786 7.715 7.715 0 0 1 1.693-8.45 7.847 7.847 0 0 1 8.509-1.681 7.754 7.754 0 0 1 4.82 7.163 7.656 7.656 0 0 1-.737 3.323 7.868 7.868 0 0 1-7.071 4.431zm0-14.477a6.755 6.755 0 0 0-6.251 4.13 6.673 6.673 0 0 0 1.456 7.315 6.788 6.788 0 0 0 7.364 1.458 6.707 6.707 0 0 0 4.169-6.202c-.006-3.694-3.017-6.69-6.737-6.701z" fill="#282E42"/>
        <path fill="#FFF" d="M74.761 40.186H44.974"/>
        <path d="M74.76 40.723H44.975a.555.555 0 0 1-.422-.537c0-.254.174-.476.422-.537h29.787a.555.555 0 0 1 .422.537.555.555 0 0 1-.422.537z" fill="#282E42"/>
        <path fill="#FFF" d="M39.503 31.097h3.832"/>
        <path d="M43.335 31.634h-3.832a.56.56 0 0 1-.594-.222.55.55 0 0 1 0-.63.56.56 0 0 1 .594-.222h3.832a.555.555 0 0 1 .422.537.555.555 0 0 1-.422.537z" fill="#282E42"/>
        <path fill="#FFF" d="M55.442 31.097h3.831"/>
        <path d="M59.28 31.634h-3.838a.56.56 0 0 1-.594-.222.55.55 0 0 1 0-.63.56.56 0 0 1 .594-.222h3.837a.555.555 0 0 1 .422.537.555.555 0 0 1-.422.537z" fill="#282E42"/>
        <ellipse fill="#FFF" cx="37.964" cy="42.185" rx="4.266" ry="4.237"/>
        <path d="M37.964 46.96c-2.654-.004-4.804-2.142-4.802-4.778.002-2.636 2.155-4.772 4.81-4.77 2.654 0 4.805 2.137 4.805 4.773-.003 2.638-2.157 4.774-4.813 4.774zm0-8.474c-2.057 0-3.725 1.656-3.725 3.7 0 2.043 1.668 3.699 3.725 3.699 2.058 0 3.725-1.656 3.725-3.7-.003-2.042-1.669-3.696-3.725-3.7z" fill="#B53EF0"/>
        <ellipse fill="#FFF" cx="81.765" cy="42.185" rx="4.266" ry="4.237"/>
        <path d="M81.77 46.96a4.808 4.808 0 0 1-4.445-2.944 4.75 4.75 0 0 1 1.039-5.205 4.832 4.832 0 0 1 5.24-1.037 4.774 4.774 0 0 1 2.969 4.411c-.004 2.633-2.15 4.768-4.802 4.774zm0-8.474a3.726 3.726 0 0 0-3.445 2.28 3.681 3.681 0 0 0 .804 4.033 3.744 3.744 0 0 0 4.06.805 3.7 3.7 0 0 0 2.302-3.419c-.003-2.04-1.666-3.693-3.72-3.7z" fill="#B53EF0"/>
        <path fill="#FFF" d="m47.322.691 9.325 15.203"/>
        <path d="M56.652 16.426a.559.559 0 0 1-.463-.255L46.86.974a.55.55 0 0 1-.093-.61.558.558 0 0 1 1.03.05l9.314 15.198a.552.552 0 0 1-.179.736.522.522 0 0 1-.279.078z" fill="#282E42"/>
        <path fill="#FFF" d="m59.742.691-9.33 15.203"/>
        <path d="M50.412 16.426a.522.522 0 0 1-.28-.078.552.552 0 0 1-.183-.736L59.279.414a.558.558 0 0 1 1.043-.067.551.551 0 0 1-.117.621l-9.33 15.203a.559.559 0 0 1-.463.255zM29.392 21.826H18.964a.56.56 0 0 1-.603-.216.55.55 0 0 1 0-.637.56.56 0 0 1 .603-.216h10.428a.56.56 0 0 1 .603.216.55.55 0 0 1 0 .637.56.56 0 0 1-.603.216zM21.534 38.486H11.117a.555.555 0 0 1-.422-.538c0-.254.174-.475.422-.537h10.417a.555.555 0 0 1 .423.537.555.555 0 0 1-.423.538zM29.521 27.525H.821c-.186.061-.383-.025-.493-.216a.654.654 0 0 1 0-.637c.11-.19.307-.277.492-.216h28.701c.185-.061.382.025.493.216.11.191.11.446 0 .637-.11.19-.308.277-.493.216zM20.369 32.98H3.772a.56.56 0 0 1-.603-.216.55.55 0 0 1 0-.636.56.56 0 0 1 .603-.217h16.597a.56.56 0 0 1 .603.217.55.55 0 0 1 0 .636.56.56 0 0 1-.603.216z" fill="#282E42"/>
        <path d="M58.024 24.119a.557.557 0 0 1-.476-.34.55.55 0 0 1 .091-.574l3.112-3.113a.56.56 0 0 1 .679.085c.18.18.215.456.085.674l-3.123 3.118a.56.56 0 0 1-.368.15zM59.112 27.62a.557.557 0 0 1-.477-.34.55.55 0 0 1 .092-.575l5.839-5.793a.56.56 0 0 1 .679.085c.18.179.215.456.085.674l-5.822 5.793a.52.52 0 0 1-.396.155zM64.878 27.331a.557.557 0 0 1-.476-.339.55.55 0 0 1 .091-.575l2.627-2.608a.559.559 0 0 1 1.036.183.553.553 0 0 1-.283.575l-2.627 2.609a.52.52 0 0 1-.368.155zM48.354 26.855a.52.52 0 0 1-.38-.155.551.551 0 0 1 0-.76l1.674-1.66a.56.56 0 0 1 1.028.183.552.552 0 0 1-.264.575L48.739 26.7a.56.56 0 0 1-.385.155zM42.526 23.964a.551.551 0 0 1 0-.76l3.112-3.112a.56.56 0 0 1 1.029.184.552.552 0 0 1-.265.575L43.29 23.97a.56.56 0 0 1-.385.15.52.52 0 0 1-.379-.155zM43.993 27.62a.557.557 0 0 1-.473-.342.55.55 0 0 1 .093-.573l5.856-5.793a.56.56 0 0 1 1.025.185.552.552 0 0 1-.255.574l-5.861 5.793a.56.56 0 0 1-.385.155z" fill="#B53EF0"/>
        <rect fill="#FFF" x="89.986" y="30.41" width="4.601" height="3.5" rx="1.281"/>
        <path d="M93.298 34.448h-2.002a1.834 1.834 0 0 1-1.835-1.822v-.903a1.821 1.821 0 0 1 .53-1.305 1.847 1.847 0 0 1 1.305-.545h2.019c.488.006.953.204 1.293.552.34.347.527.814.52 1.298v.93a1.829 1.829 0 0 1-1.83 1.795zm-2.002-3.5a.761.761 0 0 0-.551.224.75.75 0 0 0-.218.551v.93a.756.756 0 0 0 .77.732h2.018a.756.756 0 0 0 .753-.748v-.914a.756.756 0 0 0-.753-.748l-2.019-.027z" fill="#282E42"/>
        <rect fill="#FFF" x="25.461" y="30.41" width="4.601" height="3.5" rx="1.281"/>
        <path d="M28.773 34.448h-2.019a1.828 1.828 0 0 1-1.823-1.822v-.903c0-1.004.818-1.819 1.829-1.822h2.019a1.828 1.828 0 0 1 1.824 1.822v.93a1.829 1.829 0 0 1-1.83 1.795zm-2.019-3.5a.761.761 0 0 0-.54.23.75.75 0 0 0-.212.545v.93a.756.756 0 0 0 .752.732h2.02a.756.756 0 0 0 .752-.748v-.914a.756.756 0 0 0-.753-.748l-2.019-.027z" fill="#282E42"/>
    </g>
</svg>
