<svg width="71" height="50" viewBox="0 0 71 50" xmlns="http://www.w3.org/2000/svg">
    <g fill-rule="nonzero" fill="none">
        <path fill="#FFF" d="M51.266 49.34H17.462V24.985L34.41 13.182l16.855 11.804z"/>
        <path d="M51.67 49.753H17.05V24.768L34.41 12.68l.234.166 17.034 11.932-.009 24.976zm-33.8-.827h32.978V25.2L34.406 13.693 17.871 25.2v23.727z" fill="#282E42"/>
        <path fill="#FFF" d="M57.985 27.236 34.411 10.604 10.74 27.125l1.393 1.994 5.328-3.72 16.94-11.825 16.86 11.893 5.327 3.759 1.396-1.99"/>
        <path d="M56.69 29.805 34.403 14.077l-22.37 15.618-1.87-2.672L34.412 10.1l.234.166 23.911 16.87-1.865 2.668zM34.407 13.067l.234.17 21.85 15.414.92-1.313-22.995-16.227-23.098 16.116.92 1.317 22.17-15.477z" fill="#282E42"/>
        <path fill="#FFF" d="M23.832 38.563h4.612v5.932h-4.612z"/>
        <path d="M28.853 44.908H23.42v-6.759h5.434v6.759zm-4.612-.827h3.786v-5.114h-3.786v5.114z" fill="#282E42"/>
        <path fill="#FFF" d="M23.832 25.092h4.612v5.932h-4.612z"/>
        <path d="M28.853 31.438H23.42v-6.759h5.434v6.759zm-4.612-.827h3.786v-5.114h-3.786v5.114z" fill="#282E42"/>
        <path fill="#FFF" d="M40.509 25.092h4.612v5.932h-4.612z"/>
        <path d="M45.534 31.438h-5.438v-6.759h5.438v6.759zm-4.612-.827h3.786v-5.114h-3.786v5.114z" fill="#282E42"/>
        <path fill="#FFF" d="M40.509 38.563h4.612v5.932h-4.612z"/>
        <path d="M45.534 44.908h-5.438v-6.759h5.438v6.759zm-4.612-.827h3.786v-5.114h-3.786v5.114z" fill="#282E42"/>
        <path fill="#FFF" d="M31.357 36.888h6.009v10.935h-6.009z"/>
        <path d="M37.779 48.24h-6.814V36.48h6.814V48.24zm-6.009-.827h5.187V37.301H31.77v10.112z" fill="#282E42"/>
        <path fill="#FFF" d="M29.126 47.827h10.472v1.513H29.126z"/>
        <path d="M40.01 49.753H28.713v-2.34H40.01v2.34zm-10.484-.827h9.658v-.686h-9.658v.686z" fill="#282E42"/>
        <path fill="#FFF" d="M31.928 24.764h4.867v6.26h-4.867z"/>
        <path d="M37.191 31.438h-5.676V24.35h5.676v7.087zm-4.85-.827h4.041v-5.433h-4.041v5.433z" fill="#282E42"/>
        <path d="M36.795 25.178a.426.426 0 0 1-.426-.427 2.024 2.024 0 0 0-3.058-1.83 2.024 2.024 0 0 0-.983 1.83.426.426 0 1 1-.826 0 2.851 2.851 0 0 1 4.303-2.56 2.851 2.851 0 0 1 1.39 2.56.426.426 0 0 1-.4.427z" fill="#282E42"/>
        <path fill="#FFF" d="M26.136 25.092v5.932"/>
        <path d="M26.12 31.438a.426.426 0 0 1-.427-.427v-5.919a.426.426 0 1 1 .822 0v5.932a.426.426 0 0 1-.396.413z" fill="#282E42"/>
        <path fill="#FFF" d="M23.832 28.058h4.608"/>
        <path d="M28.44 28.472h-4.612a.426.426 0 0 1 0-.827h4.612a.426.426 0 0 1 0 .827z" fill="#282E42"/>
        <path fill="#FFF" d="M42.813 25.092v5.932"/>
        <path d="M42.817 31.438a.426.426 0 0 1-.426-.427v-5.919a.426.426 0 1 1 .822 0v5.932a.426.426 0 0 1-.396.413z" fill="#282E42"/>
        <path fill="#FFF" d="M40.509 28.058h4.612"/>
        <path d="M45.12 28.472H40.51a.426.426 0 1 1 0-.827h4.612a.426.426 0 0 1 0 .827z" fill="#282E42"/>
        <path fill="#FFF" d="M42.813 38.563v5.931"/>
        <path d="M42.817 44.908a.426.426 0 0 1-.426-.426v-5.92a.426.426 0 1 1 .822 0v5.932a.426.426 0 0 1-.396.414z" fill="#282E42"/>
        <path fill="#FFF" d="M40.509 41.528h4.612"/>
        <path d="M45.12 41.942H40.51a.426.426 0 1 1 0-.827h4.612a.426.426 0 0 1 0 .827z" fill="#282E42"/>
        <path fill="#FFF" d="M26.136 38.563v5.931"/>
        <path d="M26.12 44.908a.426.426 0 0 1-.427-.426v-5.92a.426.426 0 1 1 .822 0v5.932a.426.426 0 0 1-.396.414z" fill="#282E42"/>
        <path fill="#FFF" d="M23.832 41.528h4.608"/>
        <path d="M28.44 41.942h-4.612a.426.426 0 0 1 0-.827h4.612a.426.426 0 0 1 0 .827z" fill="#282E42"/>
        <path fill="#FFF" d="M34.364 24.926v5.932"/>
        <path d="M34.364 31.271a.426.426 0 0 1-.426-.426V24.93a.426.426 0 0 1 .826 0v5.928c-.006.22-.18.4-.4.413z" fill="#282E42"/>
        <path fill="#FFF" d="M32.056 27.892h4.612"/>
        <path d="M36.668 28.305H32.08a.426.426 0 1 1 0-.826h4.587a.426.426 0 0 1 0 .826z" fill="#282E42"/>
        <path fill="#FFF" d="M68.172 49.339H.556"/>
        <path d="M68.168 49.753H.568a.426.426 0 1 1 0-.827h67.6a.426.426 0 1 1 0 .827z" fill="#282E42"/>
        <path fill="#FFF" d="M11.794 49.339v-6.14"/>
        <path d="M11.794 49.753a.426.426 0 0 1-.426-.426v-6.145a.426.426 0 0 1 .826 0v6.14a.426.426 0 0 1-.4.43z" fill="#282E42"/>
        <path fill="#FFF" d="M13.191 49.339v-6.14"/>
        <path d="M13.195 49.753a.426.426 0 0 1-.426-.426v-6.145a.426.426 0 1 1 .822 0v6.14a.426.426 0 0 1-.396.43z" fill="#282E42"/>
        <path fill="#FFF" d="M14.592 49.339v-6.14"/>
        <path d="M14.592 49.753a.426.426 0 0 1-.426-.426v-6.145a.426.426 0 0 1 .826 0v6.14a.426.426 0 0 1-.4.43z" fill="#282E42"/>
        <path fill="#FFF" d="M10.963 44.601h6.499"/>
        <path d="M17.462 45.01h-6.499a.426.426 0 1 1 0-.822h6.499a.426.426 0 1 1 0 .822z" fill="#282E42"/>
        <path fill="#FFF" d="M15.988 49.339v-6.14"/>
        <path d="M15.988 49.753a.426.426 0 0 1-.426-.426v-6.145a.426.426 0 0 1 .827 0v6.14a.426.426 0 0 1-.4.43z" fill="#282E42"/>
        <path fill="#FFF" d="M52.735 49.339v-6.14"/>
        <path d="M52.739 49.753a.426.426 0 0 1-.426-.426v-6.145a.426.426 0 1 1 .822 0v6.14a.426.426 0 0 1-.396.43z" fill="#282E42"/>
        <path fill="#FFF" d="M54.136 49.339v-6.14"/>
        <path d="M54.136 49.753a.426.426 0 0 1-.426-.426v-6.145a.426.426 0 0 1 .826 0v6.14a.426.426 0 0 1-.4.43z" fill="#282E42"/>
        <path fill="#FFF" d="M51.266 44.601h6.498"/>
        <path d="M57.764 45.01h-6.498a.426.426 0 1 1 0-.822h6.498a.426.426 0 0 1 0 .822z" fill="#282E42"/>
        <path fill="#FFF" d="M55.533 49.339v-6.14"/>
        <path d="M55.533 49.753a.426.426 0 0 1-.426-.426v-6.145a.426.426 0 0 1 .826 0v6.14a.426.426 0 0 1-.4.43z" fill="#282E42"/>
        <path fill="#FFF" d="M56.929 49.339v-6.14"/>
        <path d="M56.93 49.753a.426.426 0 0 1-.426-.426v-6.145a.426.426 0 1 1 .821 0v6.14a.426.426 0 0 1-.396.43zM47.608 20.328a.426.426 0 0 1-.426-.426v-7.598h-4.148v4.1a.426.426 0 0 1-.826 0v-4.922h5.8v8.433c-.006.22-.18.4-.4.413z" fill="#282E42"/>
        <rect fill="#FFF" x="41.748" y="10.732" width="6.745" height="1.163" rx=".527"/>
        <path d="M47.965 12.304h-5.69a.941.941 0 0 1-.94-.942v-.102c0-.52.421-.942.94-.942h5.69a.941.941 0 0 1 .937.942v.102c0 .519-.419.94-.937.942zm-5.69-1.163a.124.124 0 0 0-.118.119v.102a.124.124 0 0 0 .119.12h5.69a.12.12 0 0 0 .114-.12v-.102a.12.12 0 0 0-.115-.12h-5.69z" fill="#282E42"/>
        <path d="M43.08 9.38h4.08c.247 0 .448.201.448.448v.904h-4.974v-.904c0-.247.2-.447.447-.447z" fill="#FFF"/>
        <path d="M48.02 11.14h-5.8V9.829c0-.47.382-.852.852-.852h4.08c.47 0 .852.381.852.852l.017 1.313zm-4.96-.822h4.134l-.034-.528h-4.08l-.02.528z" fill="#282E42"/>
        <path d="M28.58 4.293h-.536a2.703 2.703 0 0 0-.554-2.913 2.699 2.699 0 0 0-4.637 1.745 3.27 3.27 0 0 0-6.1 1.916 3.272 3.272 0 0 0 2.86 2.95c.125.028.254.042.383.043h8.585a1.879 1.879 0 0 0 0-3.758v.017z" fill="#FFF"/>
        <path d="M28.585 8.46H20a2.196 2.196 0 0 1-.473-.047 3.687 3.687 0 0 1-1.204-6.932 3.682 3.682 0 0 1 4.309.69 3.113 3.113 0 0 1 6.042 1.09 3.01 3.01 0 0 1-.06.618 2.292 2.292 0 0 1 0 4.581h-.03zm-8.568-6.562a2.859 2.859 0 0 0-.353 5.702c.11.023.223.036.336.038h8.585a1.47 1.47 0 0 0 0-2.936h-1.15l.23-.567c.111-.27.17-.56.175-.852a2.292 2.292 0 0 0-4.578-.103l-.064 1.415-.703-1.248a2.874 2.874 0 0 0-2.478-1.45z" fill="#B53EF0"/>
        <circle fill="#484848" cx="33.124" cy="43.092" r="1"/>
        <path d="M33.12 43.847a.754.754 0 1 1 .01-1.508.754.754 0 0 1-.01 1.508zm0-.823-.068.068c0 .038.03.069.068.069v-.137z" fill="#FFF"/>
        <ellipse fill="#FFF" cx="6.343" cy="38.69" rx="4.08" ry="4.082"/>
        <path d="M6.343 43.182a4.502 4.502 0 0 1-3.183-7.683 4.495 4.495 0 0 1 7.676 3.191 4.498 4.498 0 0 1-4.493 4.492zm0-8.17a3.672 3.672 0 0 0-3.67 3.674 3.672 3.672 0 1 0 7.34 0 3.676 3.676 0 0 0-3.67-3.669v-.004z" fill="#B53EF0"/>
        <ellipse fill="#FFF" cx="63.483" cy="35.55" rx="6.805" ry="6.81"/>
        <path d="M63.479 42.756a7.22 7.22 0 0 1-7.197-7.239 7.22 7.22 0 0 1 7.228-7.207 7.22 7.22 0 0 1 7.208 7.227 7.242 7.242 0 0 1-7.24 7.219zm0-13.615a6.39 6.39 0 0 0-6.388 6.392 6.39 6.39 0 0 0 6.388 6.392 6.39 6.39 0 0 0 6.388-6.392 6.39 6.39 0 0 0-6.388-6.38v-.012z" fill="#B53EF0"/>
        <path fill="#FFF" d="M6.343 36.999v12.34"/>
        <path d="M6.343 49.753a.426.426 0 0 1-.426-.426V36.969a.426.426 0 1 1 .822 0v12.358c0 .224-.173.41-.396.426z" fill="#282E42"/>
        <path fill="#FFF" d="m6.343 40.348 1.746-2.058"/>
        <path d="M6.343 40.761a.426.426 0 0 1-.315-.681l1.746-2.059a.426.426 0 0 1 .583-.047c.165.151.186.404.047.58l-1.746 2.071a.426.426 0 0 1-.315.136z" fill="#282E42"/>
        <path fill="#FFF" d="m6.343 41.639-1.129-.95"/>
        <path d="M6.343 42.053a.426.426 0 0 1-.264-.094l-1.129-.95a.426.426 0 0 1-.05-.584.426.426 0 0 1 .578-.051l1.129.95c.167.15.189.403.051.58a.4.4 0 0 1-.315.149z" fill="#282E42"/>
        <path fill="#FFF" d="M63.483 34.327v15.012"/>
        <path d="M63.479 49.753a.426.426 0 0 1-.426-.426v-15a.426.426 0 0 1 .822 0v15.012a.426.426 0 0 1-.396.414z" fill="#282E42"/>
        <path fill="#FFF" d="m63.483 37.604 3.126-3.75"/>
        <path d="M63.479 38.013a.426.426 0 0 1-.315-.678l3.126-3.746a.426.426 0 0 1 .583-.05c.167.149.189.402.051.579l-3.126 3.75a.426.426 0 0 1-.32.145z" fill="#282E42"/>
        <path fill="#FFF" d="m63.483 35.912-2.397-2.655"/>
        <path d="M63.479 36.325a.426.426 0 0 1-.307-.136l-2.393-2.655a.426.426 0 1 1 .613-.554l2.394 2.655a.426.426 0 0 1-.03.584.396.396 0 0 1-.277.106z" fill="#282E42"/>
        <path fill="#FFF" d="m63.483 39.317-2.465-1.504"/>
        <path d="M63.479 39.73a.396.396 0 0 1-.213-.06L60.8 38.166a.426.426 0 0 1-.136-.567.426.426 0 0 1 .566-.136l2.466 1.504a.426.426 0 0 1-.217.763z" fill="#282E42"/>
    </g>
</svg>
