<svg width="24" height="24" viewBox="0 0 24 24" xmlns="http://www.w3.org/2000/svg">
    <g fill="none" fill-rule="evenodd">
        <path d="M2.88 2.88h18.24v18.24H2.88z"/>
        <path d="M16.56 8.96h1.52c.42 0 .76.34.76.76v9.12c0 .42-.34.76-.76.76H5.92a.76.76 0 0 1-.76-.76V9.72c0-.42.34-.76.76-.76h1.52V8.2a4.56 4.56 0 1 1 9.12 0v.76zm-1.52 0V8.2a3.04 3.04 0 0 0-6.08 0v.76h6.08zm-3.8 4.56v1.52h1.52v-1.52h-1.52zm-3.04 0v1.52h1.52v-1.52H8.2zm6.08 0v1.52h1.52v-1.52h-1.52z" fill="#5E6267" fill-rule="nonzero"/>
    </g>
</svg>
