<svg width="29" height="20" viewBox="0 0 29 20" xmlns="http://www.w3.org/2000/svg">
    <path d="M29 9.975a13.74 13.74 0 0 0-.625-1.629l-.186-.015-3.318-.268C15.7.758 8.247-2.115 2.995 1.667.99 3.605.641 5.343.642 7.208.214 7.46-.05 7.94.008 8.457c.078.711.732 1.225 1.458 1.147.727-.077 1.252-.716 1.173-1.427a1.284 1.284 0 0 0-.51-.885c-.1-1.949.563-3.57 2.218-4.765 5.78-3.044 12.654 1.27 19.716 6.878-6.55 6.12-13.017 10.92-19.012 8.356-1.777-1.077-2.568-2.673-2.608-4.666.41-.257.662-.725.606-1.231-.08-.711-.733-1.224-1.459-1.147-.727.077-1.251.716-1.172 1.426.04.373.242.69.527.899.122 1.995.536 3.8 2.829 5.684 5.55 3.352 12.738-.103 21.273-8.112l3.835-.62.118-.02z" fill="#FFF" fill-rule="nonzero"/>
</svg>
