<svg width="300" height="239" viewBox="0 0 300 239" xmlns="http://www.w3.org/2000/svg">
    <g style="mix-blend-mode:luminosity" fill-rule="nonzero" fill="none">
        <g fill="#263238">
            <path d="M213 65.334a9.96 9.96 0 0 1 5.088 5.478s-.408-6.168 2.448-8.622c0 0-2.586 2.046-3.132 5.046A7.968 7.968 0 0 0 213 65.334zM200.298 49.872s4.74 3.684 6.036 7.08c0 0 .726-3.642 4.158-4.734a5.004 5.004 0 0 0-4.158 2.112 11.964 11.964 0 0 0-6.036-4.458zM195.234 65.898s3.882-.6 5.742 1.764c0 0-1.152-3.528 0-5.916 0 0-1.536.984-1.002 4.53 0 0-1.476-1.524-4.74-.378z"/>
        </g>
        <g>
            <path fill="#EBEBEB" d="M0 196.44h300v1H0zM62.724 200.526h19.872v1H62.724zM102.684 206.022h24.45v1h-24.45zM31.476 204.144h30.648v1H31.476zM214.056 201.534h55.884v1h-55.884zM166.326 204.066h25.338v1h-25.338zM142.2 169.68H26.346a3.426 3.426 0 0 1-3.42-3.426V3.396A3.426 3.426 0 0 1 26.346 0H142.2a3.426 3.426 0 0 1 3.426 3.426v162.828a3.426 3.426 0 0 1-3.426 3.426zM26.346.12a3.276 3.276 0 0 0-3.27 3.276v162.858a3.276 3.276 0 0 0 3.27 3.276H142.2a3.288 3.288 0 0 0 3.276-3.276V3.396A3.288 3.288 0 0 0 142.2.12H26.346zM271.986 169.68h-115.86a3.438 3.438 0 0 1-3.426-3.426V3.396A3.432 3.432 0 0 1 156.126 0h115.86a3.426 3.426 0 0 1 3.414 3.396v162.858a3.42 3.42 0 0 1-3.414 3.426zM156.126.12a3.288 3.288 0 0 0-3.276 3.276v162.858a3.288 3.288 0 0 0 3.276 3.276h115.86a3.288 3.288 0 0 0 3.276-3.276V3.396A3.288 3.288 0 0 0 271.986.12h-115.86z"/>
            <path d="M128.832 31.95h48.036s-2.916-4.572-7.902-2.286c0 0-.936-4.8-4.158-4.884a4.572 4.572 0 0 0-4.368 2.4s-3.744-5.82-9.462-4.572a7.8 7.8 0 0 0-6.24 6.546s-8.538-4.374-15.906 2.796zM41.04 98.826h48s-2.91-4.578-7.902-2.292c0 0-.936-4.8-4.158-4.884a4.596 4.596 0 0 0-4.368 2.4s-3.738-5.826-9.456-4.578A7.8 7.8 0 0 0 56.946 96s-8.526-4.35-15.906 2.826zM223.53 66.486h48.03s-2.91-4.572-7.902-2.286c0 0-.93-4.8-4.158-4.884-1.8-.131-3.51.81-4.362 2.4 0 0-3.744-5.82-9.462-4.572a7.8 7.8 0 0 0-6.24 6.546s-8.526-4.374-15.906 2.796z" fill="#FAFAFA"/>
            <circle fill="#F0F0F0" transform="rotate(-76.67 215.833 36.816)" cx="215.833" cy="36.816" r="4.866"/>
            <path d="M36.45 66.486h48.03s-2.88-4.572-7.902-2.286c0 0-.936-4.8-4.158-4.884-1.8-.131-3.51.81-4.362 2.4 0 0-3.744-5.82-9.462-4.572a7.8 7.8 0 0 0-6.24 6.546s-8.526-4.374-15.906 2.796z" fill="#FAFAFA"/>
        </g>
        <path fill="#E6E6E6" d="M71.64 81.042h50.928v99.39H71.64z"/>
        <path fill="#F0F0F0" d="M71.64 81.042h41.67v99.39H71.64z"/>
        <path fill="#E0E0E0" d="M70.542 81.042h52.626v1.62H70.542zM70.542 77.796h52.626v1.62H70.542z"/>
        <path fill="#F0F0F0" d="M71.64 79.416h50.424v1.62H71.64z"/>
        <path fill="#E6E6E6" d="M75.594 86.892h7.824v7.824h-7.824z"/>
        <path fill="#F5F5F5" d="M76.284 86.892h7.134v7.824h-7.134z"/>
        <path fill="#E6E6E6" d="M87.45 86.892h7.824v7.824H87.45z"/>
        <path fill="#F5F5F5" d="M88.14 86.892h7.134v7.824H88.14z"/>
        <path fill="#E6E6E6" d="M99.3 86.892h7.824v7.824H99.3z"/>
        <path fill="#F5F5F5" d="M99.99 86.892h7.134v7.824H99.99z"/>
        <path fill="#E6E6E6" d="M75.594 98.418h7.824v7.824h-7.824z"/>
        <path fill="#F5F5F5" d="M76.284 98.418h7.134v7.824h-7.134z"/>
        <path fill="#E6E6E6" d="M87.45 98.418h7.824v7.824H87.45z"/>
        <path fill="#F5F5F5" d="M88.14 98.418h7.134v7.824H88.14z"/>
        <path fill="#E6E6E6" d="M99.3 98.418h7.824v7.824H99.3z"/>
        <path fill="#F5F5F5" d="M99.99 98.418h7.134v7.824H99.99z"/>
        <path fill="#E6E6E6" d="M75.594 119.52h7.824v7.824h-7.824z"/>
        <path fill="#F5F5F5" d="M76.284 119.52h7.134v7.824h-7.134z"/>
        <path fill="#E6E6E6" d="M87.45 119.52h7.824v7.824H87.45z"/>
        <path fill="#F5F5F5" d="M88.14 119.52h7.134v7.824H88.14z"/>
        <path fill="#E6E6E6" d="M99.3 119.52h7.824v7.824H99.3z"/>
        <path fill="#F5F5F5" d="M99.99 119.52h7.134v7.824H99.99z"/>
        <path fill="#E6E6E6" d="M75.594 131.046h7.824v7.824h-7.824z"/>
        <path fill="#F5F5F5" d="M76.284 131.046h7.134v7.824h-7.134z"/>
        <path fill="#E6E6E6" d="M87.45 131.046h7.824v7.824H87.45z"/>
        <path fill="#F5F5F5" d="M88.14 131.046h7.134v7.824H88.14z"/>
        <path fill="#E6E6E6" d="M99.3 131.046h7.824v7.824H99.3z"/>
        <path fill="#F5F5F5" d="M99.99 131.046h7.134v7.824H99.99z"/>
        <path fill="#E6E6E6" d="M75.594 154.5h7.824v7.824h-7.824z"/>
        <path fill="#F5F5F5" d="M76.284 154.5h7.134v7.824h-7.134z"/>
        <path fill="#E6E6E6" d="M87.45 154.5h7.824v7.824H87.45z"/>
        <path fill="#F5F5F5" d="M88.14 154.5h7.134v7.824H88.14z"/>
        <path fill="#E6E6E6" d="M99.3 154.5h7.824v7.824H99.3z"/>
        <path fill="#F5F5F5" d="M99.99 154.5h7.134v7.824H99.99z"/>
        <path fill="#E6E6E6" d="M75.594 166.026h7.824v7.824h-7.824z"/>
        <path fill="#F5F5F5" d="M76.284 166.026h7.134v7.824h-7.134z"/>
        <path fill="#E6E6E6" d="M87.45 166.026h7.824v7.824H87.45z"/>
        <path fill="#F5F5F5" d="M88.14 166.026h7.134v7.824H88.14z"/>
        <path fill="#E6E6E6" d="M99.3 166.026h7.824v7.824H99.3z"/>
        <path fill="#F5F5F5" d="M99.99 166.026h7.134v7.824H99.99z"/>
        <path fill="#E0E0E0" d="M71.64 111.744h50.928v1H71.64zM71.64 147.822h50.928v1H71.64zM27.816 110.802h35.226v85.716H27.816z"/>
        <path fill="#F0F0F0" d="M27.816 110.802H53.01v85.716H27.816z"/>
        <path fill="#E6E6E6" d="M30.408 117.846h9.378v4.554h-9.378z"/>
        <path fill="#F5F5F5" d="M31.032 117.846h8.754v4.554h-8.754z"/>
        <path fill="#E6E6E6" d="M41.256 117.846h9.378v4.554h-9.378z"/>
        <path fill="#F5F5F5" d="M41.88 117.846h8.748v4.554H41.88z"/>
        <path fill="#E6E6E6" d="M30.408 126.414h9.378v4.554h-9.378z"/>
        <path fill="#F5F5F5" d="M31.032 126.414h8.754v4.554h-8.754z"/>
        <path fill="#E6E6E6" d="M41.256 126.414h9.378v4.554h-9.378z"/>
        <path fill="#F5F5F5" d="M41.88 126.414h8.748v4.554H41.88z"/>
        <path fill="#E6E6E6" d="M30.408 137.364h9.378v4.554h-9.378z"/>
        <path fill="#F5F5F5" d="M31.032 137.364h8.754v4.554h-8.754z"/>
        <path fill="#E6E6E6" d="M41.256 137.364h9.378v4.554h-9.378z"/>
        <path fill="#F5F5F5" d="M41.88 137.364h8.748v4.554H41.88z"/>
        <path fill="#E6E6E6" d="M30.408 143.652h9.378v4.554h-9.378z"/>
        <path fill="#F5F5F5" d="M31.032 143.652h8.754v4.554h-8.754z"/>
        <path fill="#E6E6E6" d="M41.256 143.652h9.378v4.554h-9.378z"/>
        <path fill="#F5F5F5" d="M41.88 143.652h8.748v4.554H41.88z"/>
        <path fill="#E6E6E6" d="M30.408 153.99h9.378v4.554h-9.378z"/>
        <path fill="#F5F5F5" d="M31.032 153.99h8.754v4.554h-8.754z"/>
        <path fill="#E6E6E6" d="M41.256 153.99h9.378v4.554h-9.378z"/>
        <path fill="#F5F5F5" d="M41.88 153.99h8.748v4.554H41.88z"/>
        <path fill="#E6E6E6" d="M30.408 160.278h9.378v4.554h-9.378z"/>
        <path fill="#F5F5F5" d="M31.032 160.278h8.754v4.554h-8.754z"/>
        <path fill="#E6E6E6" d="M41.256 160.278h9.378v4.554h-9.378z"/>
        <path fill="#F5F5F5" d="M41.88 160.278h8.748v4.554H41.88z"/>
        <path fill="#E6E6E6" d="M30.408 171.528h9.378v4.554h-9.378z"/>
        <path fill="#F5F5F5" d="M31.032 171.528h8.754v4.554h-8.754z"/>
        <path fill="#E6E6E6" d="M41.256 171.528h9.378v4.554h-9.378z"/>
        <path fill="#F5F5F5" d="M41.88 171.528h8.748v4.554H41.88z"/>
        <path fill="#E6E6E6" d="M30.408 179.832h9.378v4.554h-9.378z"/>
        <path fill="#F5F5F5" d="M31.032 179.832h8.754v4.554h-8.754z"/>
        <path fill="#E6E6E6" d="M41.256 179.832h9.378v4.554h-9.378z"/>
        <path fill="#F5F5F5" d="M41.88 179.832h8.748v4.554H41.88z"/>
        <path fill="#000" opacity=".05" d="M27.816 133.77h35.226v1H27.816zM27.816 150.702h35.226v1H27.816zM27.816 167.784h35.226v1H27.816z"/>
        <path fill="#E0E0E0" d="M26.154 108.264h36.882V111H26.154z"/>
        <path fill="#000" opacity=".05" d="M54.612 108.264h8.43V111h-8.43z"/>
        <path fill="#E6E6E6" d="M143.616 66.156h41.364v107.502h-41.364z"/>
        <path fill="#F0F0F0" d="M128.304 66.156h41.364v107.502h-41.364z"/>
        <path fill="#E6E6E6" d="M131.916 73.452h34.146v5.478h-34.146z"/>
        <path fill="#F5F5F5" d="M133.236 73.452h32.82v5.478h-32.82z"/>
        <path fill="#E6E6E6" d="M131.916 82.674h34.146v5.478h-34.146z"/>
        <path fill="#F5F5F5" d="M133.236 82.674h32.82v5.478h-32.82z"/>
        <path fill="#E6E6E6" d="M131.916 92.25h34.146v5.478h-34.146z"/>
        <path fill="#F5F5F5" d="M133.236 92.25h32.82v5.478h-32.82z"/>
        <path fill="#E6E6E6" d="M131.916 101.832h34.146v5.478h-34.146z"/>
        <path fill="#F5F5F5" d="M133.236 101.832h32.82v5.478h-32.82z"/>
        <path fill="#E6E6E6" d="M131.916 111.408h34.146v5.478h-34.146z"/>
        <path fill="#F5F5F5" d="M133.236 111.408h32.82v5.478h-32.82z"/>
        <path fill="#E6E6E6" d="M131.916 120.99h34.146v5.478h-34.146z"/>
        <path fill="#F5F5F5" d="M133.236 120.99h32.82v5.478h-32.82z"/>
        <path fill="#E6E6E6" d="M131.916 131.544h34.146v5.478h-34.146z"/>
        <path fill="#F5F5F5" d="M133.236 131.544h32.82v5.478h-32.82z"/>
        <path fill="#E6E6E6" d="M131.916 142.104h34.146v5.478h-34.146z"/>
        <path fill="#F5F5F5" d="M133.236 142.104h32.82v5.478h-32.82z"/>
        <path fill="#E6E6E6" d="M131.916 152.664h34.146v5.478h-34.146z"/>
        <path fill="#F5F5F5" d="M133.236 152.664h32.82v5.478h-32.82z"/>
        <path fill="#E6E6E6" d="M131.916 163.218h34.146v5.478h-34.146z"/>
        <path fill="#F5F5F5" d="M133.236 163.218h32.82v5.478h-32.82z"/>
        <path fill="#E0E0E0" d="M127.134 65.076h58.92v2.622h-58.92zM127.134 60.342h58.92v2.622h-58.92z"/>
        <path fill="#F0F0F0" d="M128.304 62.448h55.794v2.622h-55.794z"/>
        <path fill="#E0E0E0" d="M173.454 73.452h11.526v5.478h-11.526zM173.454 82.464h11.526v5.478h-11.526zM173.454 91.482h11.526v5.478h-11.526zM173.454 101.826h11.526v5.478h-11.526zM173.454 111.408h11.526v5.478h-11.526zM173.454 120.99h11.526v5.478h-11.526zM173.454 131.544h11.526v5.478h-11.526zM173.454 142.104h11.526v5.478h-11.526zM173.454 152.658h11.526v5.478h-11.526zM173.454 163.218h11.526v5.478h-11.526zM275.286 148.614h3.318v5.19h-3.318zM275.286 157.11h3.318v5.19h-3.318zM275.286 165.36h3.318v5.19h-3.318zM275.286 174.09h3.318v5.19h-3.318zM275.286 182.58h3.318v5.19h-3.318z"/>
        <path fill="#E6E6E6" d="M243.702 143.4h34.902v53.082h-34.902z"/>
        <path fill="#F0F0F0" d="M243.708 143.4h29.004v53.082h-29.004z"/>
        <path fill="#EBEBEB" d="M246.318 148.614h23.586v5.19h-23.586zM246.318 157.11h23.586v5.19h-23.586zM246.318 165.6h23.586v5.19h-23.586zM246.318 174.09h23.586v5.19h-23.586zM246.318 182.58h23.586v5.19h-23.586z"/>
        <path fill="#F5F5F5" d="M247.182 148.614h22.716v5.19h-22.716zM247.182 157.11h22.716v5.19h-22.716zM247.182 165.6h22.716v5.19h-22.716zM247.182 174.09h22.716v5.19h-22.716zM247.182 182.58h22.716v5.19h-22.716z"/>
        <g>
            <path fill="#C375EF" d="M71.562 98.712h59.418v115.956H71.562z"/>
            <path fill="#FFF" opacity=".4" d="M71.562 98.712h48.618v115.956H71.562z"/>
            <path fill="#C375EF" d="M70.284 98.712h61.398v1.89H70.284zM70.284 94.926h61.398v1.896H70.284z"/>
            <path fill="#F0F0F0" d="M71.562 96.822h58.83v1.89h-58.83z"/>
            <path fill="#C375EF" d="M76.176 105.54h9.132v9.132h-9.132z"/>
            <path fill="#FFF" opacity=".2" d="M76.98 105.54h8.328v9.132H76.98z"/>
            <path fill="#C375EF" d="M90.006 105.54h9.132v9.132h-9.132z"/>
            <path fill="#FFF" opacity=".2" d="M90.81 105.54h8.328v9.132H90.81z"/>
            <path fill="#C375EF" d="M103.83 105.54h9.132v9.132h-9.132z"/>
            <path fill="#FFF" opacity=".2" d="M104.634 105.54h8.328v9.132h-8.328z"/>
            <path fill="#C375EF" d="M76.176 118.986h9.132v9.132h-9.132z"/>
            <path fill="#FFF" opacity=".2" d="M76.98 118.986h8.328v9.132H76.98z"/>
            <path fill="#C375EF" d="M90.006 118.986h9.132v9.132h-9.132z"/>
            <path fill="#FFF" opacity=".2" d="M90.81 118.986h8.328v9.132H90.81z"/>
            <path fill="#C375EF" d="M103.83 118.986h9.132v9.132h-9.132z"/>
            <path fill="#FFF" opacity=".2" d="M104.634 118.986h8.328v9.132h-8.328z"/>
            <path fill="#C375EF" d="M76.176 143.604h9.132v9.132h-9.132z"/>
            <path fill="#FFF" opacity=".2" d="M76.98 143.604h8.328v9.132H76.98z"/>
            <path fill="#C375EF" d="M90.006 143.604h9.132v9.132h-9.132z"/>
            <path fill="#FFF" opacity=".2" d="M90.81 143.604h8.328v9.132H90.81z"/>
            <path fill="#C375EF" d="M103.83 143.604h9.132v9.132h-9.132z"/>
            <path fill="#FFF" opacity=".2" d="M104.634 143.604h8.328v9.132h-8.328z"/>
            <path fill="#C375EF" d="M76.176 157.05h9.132v9.132h-9.132z"/>
            <path fill="#FFF" opacity=".2" d="M76.98 157.05h8.328v9.132H76.98z"/>
            <path fill="#C375EF" d="M90.006 157.05h9.132v9.132h-9.132z"/>
            <path fill="#FFF" opacity=".2" d="M90.81 157.05h8.328v9.132H90.81z"/>
            <path fill="#C375EF" d="M103.83 157.05h9.132v9.132h-9.132z"/>
            <path fill="#FFF" opacity=".2" d="M104.634 157.05h8.328v9.132h-8.328z"/>
            <path fill="#C375EF" d="M76.176 184.416h9.132v9.132h-9.132z"/>
            <path fill="#FFF" opacity=".2" d="M76.98 184.416h8.328v9.132H76.98z"/>
            <path fill="#C375EF" d="M90.006 184.416h9.132v9.132h-9.132z"/>
            <path fill="#FFF" opacity=".2" d="M90.81 184.416h8.328v9.132H90.81z"/>
            <path fill="#C375EF" d="M103.83 184.416h9.132v9.132h-9.132z"/>
            <path fill="#FFF" opacity=".2" d="M104.634 184.416h8.328v9.132h-8.328z"/>
            <path fill="#C375EF" d="M76.176 197.862h9.132v9.132h-9.132z"/>
            <path fill="#FFF" opacity=".2" d="M76.98 197.862h8.328v9.132H76.98z"/>
            <path fill="#C375EF" d="M90.006 197.862h9.132v9.132h-9.132z"/>
            <path fill="#FFF" opacity=".2" d="M90.81 197.862h8.328v9.132H90.81z"/>
            <path fill="#C375EF" d="M103.83 197.862h9.132v9.132h-9.132z"/>
            <path fill="#FFF" opacity=".2" d="M104.634 197.862h8.328v9.132h-8.328zM71.562 134.538h59.418v1H71.562zM71.562 176.622h59.418v1H71.562z"/>
            <path fill="#C375EF" d="M171.696 114.672h41.094v99.996h-41.094z"/>
            <path fill="#FFF" opacity=".4" d="M171.696 114.672h31.26v99.996h-31.26z"/>
            <path fill="#C375EF" d="M174.726 122.886h10.938v5.31h-10.938z"/>
            <path fill="#FFF" opacity=".2" d="M175.452 122.886h10.212v5.31h-10.212z"/>
            <path fill="#C375EF" d="M187.38 122.886h10.938v5.31H187.38z"/>
            <path fill="#FFF" opacity=".2" d="M188.106 122.886h10.212v5.31h-10.212z"/>
            <path fill="#C375EF" d="M174.726 132.882h10.938v5.31h-10.938z"/>
            <path fill="#FFF" opacity=".2" d="M175.452 132.882h10.212v5.31h-10.212z"/>
            <path fill="#C375EF" d="M187.38 132.882h10.938v5.31H187.38z"/>
            <path fill="#FFF" opacity=".2" d="M188.106 132.882h10.212v5.31h-10.212z"/>
            <path fill="#C375EF" d="M174.726 145.656h10.938v5.31h-10.938z"/>
            <path fill="#FFF" opacity=".2" d="M175.452 145.656h10.212v5.31h-10.212z"/>
            <path fill="#C375EF" d="M187.38 145.656h10.938v5.31H187.38z"/>
            <path fill="#FFF" opacity=".2" d="M188.106 145.656h10.212v5.31h-10.212z"/>
            <path fill="#C375EF" d="M174.726 152.994h10.938v5.31h-10.938z"/>
            <path fill="#FFF" opacity=".2" d="M175.452 152.994h10.212v5.31h-10.212z"/>
            <path fill="#C375EF" d="M187.38 152.994h10.938v5.31H187.38z"/>
            <path fill="#FFF" opacity=".2" d="M188.106 152.994h10.212v5.31h-10.212z"/>
            <path fill="#C375EF" d="M174.726 165.054h10.938v5.31h-10.938z"/>
            <path fill="#FFF" opacity=".2" d="M175.452 165.054h10.212v5.31h-10.212z"/>
            <path fill="#C375EF" d="M187.38 165.054h10.938v5.31H187.38z"/>
            <path fill="#FFF" opacity=".2" d="M188.106 165.054h10.212v5.31h-10.212z"/>
            <path fill="#C375EF" d="M174.726 172.392h10.938v5.31h-10.938z"/>
            <path fill="#FFF" opacity=".2" d="M175.452 172.392h10.212v5.31h-10.212z"/>
            <path fill="#C375EF" d="M187.38 172.392h10.938v5.31H187.38z"/>
            <path fill="#FFF" opacity=".2" d="M188.106 172.392h10.212v5.31h-10.212z"/>
            <path fill="#C375EF" d="M174.726 185.514h10.938v5.31h-10.938z"/>
            <path fill="#FFF" opacity=".2" d="M175.452 185.514h10.212v5.31h-10.212z"/>
            <path fill="#C375EF" d="M187.38 185.514h10.938v5.31H187.38z"/>
            <path fill="#FFF" opacity=".2" d="M188.106 185.514h10.212v5.31h-10.212z"/>
            <path fill="#C375EF" d="M174.726 195.21h10.938v5.31h-10.938z"/>
            <path fill="#FFF" opacity=".2" d="M175.452 195.21h10.212v5.31h-10.212z"/>
            <path fill="#C375EF" d="M187.38 195.21h10.938v5.31H187.38z"/>
            <path fill="#FFF" opacity=".2" d="M188.106 195.21h10.212v5.31h-10.212z"/>
            <path fill="#C375EF" d="M169.764 111.714h43.032v3.192h-43.032z"/>
            <path fill="#000" opacity=".2" d="M202.962 111.714h9.834v3.192h-9.834z"/>
            <path fill="#E0E0E0" d="M167.826 158.826h3.87v6.054h-3.87zM167.826 168.732h3.87v6.054h-3.87zM167.826 178.362h3.87v6.054h-3.87zM167.826 188.544h3.87v6.054h-3.87zM167.826 198.45h3.87v6.054h-3.87z"/>
            <path fill="#C375EF" d="M130.98 152.742h40.716v61.926H130.98z"/>
            <path fill="#FFF" opacity=".3" d="M130.98 152.736h33.84v61.932h-33.84z"/>
            <path fill="#C375EF" d="M134.022 158.826h27.516v6.054h-27.516zM134.022 168.732h27.516v6.054h-27.516zM134.022 178.638h27.516v6.054h-27.516zM134.022 188.544h27.516v6.054h-27.516zM134.022 198.45h27.516v6.054h-27.516z"/>
            <g opacity=".1" fill="#FFF">
                <path d="M135.036 158.826h26.502v6.054h-26.502zM135.036 168.732h26.502v6.054h-26.502zM135.036 178.638h26.502v6.054h-26.502zM135.036 188.544h26.502v6.054h-26.502zM135.036 198.45h26.502v6.054h-26.502z"/>
            </g>
            <path fill="#C375EF" d="M47.148 171.762H19.83v42.906h43.596v-61.932zM63.426 152.736h8.136v61.932h-8.136z"/>
            <path fill="#FFF" opacity=".7" d="M63.426 152.736h8.136v61.932h-8.136zM120.174 100.602h10.806v114.066h-10.806z"/>
            <path fill="#FFF" opacity=".6" d="M164.82 152.736h6.876v61.932h-6.876z"/>
            <path fill="#FFF" opacity=".7" d="M202.962 114.906h9.834v99.762h-9.834z"/>
            <path fill="#FFF" opacity=".5" d="M217.002 97.764h1.548v6.39h-1.548zM217.002 108.516h1.548v6.39h-1.548zM217.002 119.694h1.548v6.39h-1.548zM217.002 130.872h1.548v6.39h-1.548zM217.002 142.044h1.548v6.39h-1.548zM217.002 153.222h1.548v6.39h-1.548zM217.002 165.54h1.548v6.39h-1.548zM217.002 177.858h1.548v6.39h-1.548zM217.002 190.17h1.548v6.39h-1.548zM217.002 202.488h1.548v6.39h-1.548z"/>
            <path fill="#C375EF" d="M230.658 89.25h48.258v125.418h-48.258z"/>
            <path fill="#C375EF" d="M212.79 89.25h48.258v125.418H212.79z"/>
            <path fill="#FFF" opacity=".7" d="M261.054 91.05h17.862v123.618h-17.862z"/>
            <path fill="#C375EF" d="M265.47 97.764h13.446v6.39H265.47zM265.47 108.276h13.446v6.39H265.47zM265.47 118.794h13.446v6.39H265.47zM265.47 130.866h13.446v6.39H265.47zM265.47 142.044h13.446v6.39H265.47zM265.47 153.222h13.446v6.39H265.47zM265.47 165.534h13.446v6.39H265.47zM265.47 177.852h13.446v6.39H265.47zM265.47 190.17h13.446v6.39H265.47zM265.47 202.488h13.446v6.39H265.47z"/>
            <path fill="#FFF" opacity=".3" d="M265.47 97.764h13.446v6.39H265.47zM265.47 108.276h13.446v6.39H265.47zM265.47 118.794h13.446v6.39H265.47zM265.47 130.866h13.446v6.39H265.47zM265.47 142.044h13.446v6.39H265.47zM265.47 153.222h13.446v6.39H265.47zM265.47 165.534h13.446v6.39H265.47zM265.47 177.852h13.446v6.39H265.47zM265.47 190.17h13.446v6.39H265.47zM265.47 202.488h13.446v6.39H265.47z"/>
            <path fill="#FFF" opacity=".4" d="M212.79 89.25h48.258v125.418H212.79z"/>
            <path fill="#C375EF" d="M217.002 97.764h39.84v6.39h-39.84z"/>
            <path fill="#FFF" opacity=".2" d="M218.55 97.764h38.292v6.39H218.55z"/>
            <path fill="#C375EF" d="M217.002 108.516h39.84v6.39h-39.84z"/>
            <path fill="#FFF" opacity=".2" d="M218.55 108.516h38.292v6.39H218.55z"/>
            <path fill="#C375EF" d="M217.002 119.694h39.84v6.39h-39.84z"/>
            <path fill="#FFF" opacity=".2" d="M218.55 119.694h38.292v6.39H218.55z"/>
            <path fill="#C375EF" d="M217.002 130.872h39.84v6.39h-39.84z"/>
            <path fill="#FFF" opacity=".2" d="M218.55 130.872h38.292v6.39H218.55z"/>
            <path fill="#C375EF" d="M217.002 142.044h39.84v6.39h-39.84z"/>
            <path fill="#FFF" opacity=".2" d="M218.55 142.044h38.292v6.39H218.55z"/>
            <path fill="#C375EF" d="M217.002 153.222h39.84v6.39h-39.84z"/>
            <path fill="#FFF" opacity=".2" d="M218.55 153.222h38.292v6.39H218.55z"/>
            <path fill="#C375EF" d="M217.002 165.54h39.84v6.39h-39.84z"/>
            <path fill="#FFF" opacity=".2" d="M218.55 165.54h38.292v6.39H218.55z"/>
            <path fill="#C375EF" d="M217.002 177.858h39.84v6.39h-39.84z"/>
            <path fill="#FFF" opacity=".2" d="M218.55 177.858h38.292v6.39H218.55z"/>
            <path fill="#C375EF" d="M217.002 190.17h39.84v6.39h-39.84z"/>
            <path fill="#FFF" opacity=".2" d="M218.55 190.17h38.292v6.39H218.55z"/>
            <path fill="#C375EF" d="M217.002 202.488h39.84v6.39h-39.84z"/>
            <path fill="#FFF" opacity=".2" d="M218.55 202.488h38.292v6.39H218.55z"/>
            <path fill="#C375EF" d="M261.054 85.524h16.83v2.46h-16.83z"/>
            <path fill="#F0F0F0" d="M212.79 84.924h65.094v3.06H212.79z"/>
            <path fill="#C375EF" d="M211.428 87.99h68.742v3.06h-68.742zM211.428 82.464h68.742v3.06h-68.742z"/>
            <path fill="#000" opacity=".05" d="M211.428 87.99h68.742v3.06h-68.742zM211.428 82.464h68.742v3.06h-68.742z"/>
            <path fill="#FFF" opacity=".2" d="M171.696 141.318h41.094v1h-41.094zM171.696 161.076h41.094v1h-41.094zM171.696 181.002h41.094v1h-41.094z"/>
            <path fill="#000" opacity=".2" d="M120.174 98.712h11.502v1.89h-11.502zM120.174 94.926h11.502v1.89h-11.502zM261.054 87.99h19.116v3.06h-19.116zM261.054 82.464h19.116v3.06h-19.116z"/>
            <path fill="#FFF" opacity=".4" d="M47.148 171.762H19.83v42.906h43.596v-61.932z"/>
            <path fill="#C375EF" d="M23.784 180.462h6.486v6.486h-6.486zM36.984 180.462h6.486v6.486h-6.486zM50.184 180.462h6.486v6.486h-6.486zM23.784 191.376h6.486v6.486h-6.486zM36.984 191.376h6.486v6.486h-6.486zM50.184 191.376h6.486v6.486h-6.486zM23.784 202.29h6.486v6.486h-6.486zM36.984 202.29h6.486v6.486h-6.486zM50.184 202.29h6.486v6.486h-6.486z"/>
            <path fill="#FFF" opacity=".2" d="M24.504 180.462h6.486v6.486h-6.486zM37.698 180.462h6.486v6.486h-6.486zM50.898 180.462h6.486v6.486h-6.486zM24.504 191.376h6.486v6.486h-6.486zM37.698 191.376h6.486v6.486h-6.486zM50.898 191.376h6.486v6.486h-6.486zM24.504 202.29h6.486v6.486h-6.486zM37.698 202.29h6.486v6.486h-6.486zM50.898 202.29h6.486v6.486h-6.486z"/>
        </g>
        <g>
            <path fill="#C375EF" d="m146.46 219.642-3.756 19.056h12.606l-1.278-19.056zM158.244 219.642l5.4 19.056h8.448l-6.924-19.056zM169.92 219.642l11.112 19.056h9.588l-14.442-19.056zM181.194 219.642l18.414 19.056h11.466l-23.01-19.056zM141.756 219.642l-5.4 19.056h-8.448l6.924-19.056zM130.08 219.642l-11.112 19.056h-9.588l14.442-19.056zM118.806 219.642l-18.414 19.056H88.926l23.01-19.056z"/>
            <path fill="#FFF" opacity=".4" d="m146.46 219.642-3.756 19.056h12.606l-1.278-19.056zM158.244 219.642l5.4 19.056h8.448l-6.924-19.056zM169.92 219.642l11.112 19.056h9.588l-14.442-19.056zM181.194 219.642l18.414 19.056h11.466l-23.01-19.056zM141.756 219.642l-5.4 19.056h-8.448l6.924-19.056zM130.08 219.642l-11.112 19.056h-9.588l14.442-19.056zM118.806 219.642l-18.414 19.056H88.926l23.01-19.056z"/>
            <path d="M60.396 212.466A15.894 15.894 0 0 0 75.6 194.574c-.396-3.126-1.704-6.048-2.628-9.06-1.746-5.694-2.304-12.12-6.312-16.53a13.2 13.2 0 0 0-19.506 0c-2.598 2.85-3.828 6.702-4.362 10.524-.534 3.822-.462 7.692-.792 11.514-.3 3.186-.906 6.366-.774 9.564.132 3.198 1.092 6.528 3.438 8.706a16.512 16.512 0 0 0 3.972 2.508c1.383.77 2.883 1.31 4.44 1.596a5.292 5.292 0 0 0 4.41-1.23c.95.241 1.93.342 2.91.3z" fill="#C375EF"/>
            <path d="M60.396 212.466A15.894 15.894 0 0 0 75.6 194.574c-.396-3.126-1.704-6.048-2.628-9.06-1.746-5.694-2.304-12.12-6.312-16.53a13.2 13.2 0 0 0-19.506 0c-2.598 2.85-3.828 6.702-4.362 10.524-.534 3.822-.462 7.692-.792 11.514-.3 3.186-.906 6.366-.774 9.564.132 3.198 1.092 6.528 3.438 8.706a16.512 16.512 0 0 0 3.972 2.508c1.383.77 2.883 1.31 4.44 1.596a5.292 5.292 0 0 0 4.41-1.23c.95.241 1.93.342 2.91.3z" fill="#FFF" opacity=".7"/>
            <path d="M53.058 224.1v-.798l1.326-1.122s1.584-16.2 1.854-20.892.6-12.084-1.128-17.448a49.926 49.926 0 0 1 3.246 11.4s2.052-7.38 5.694-12.078c0 0-4.44 11.34-3.84 21.888a119.01 119.01 0 0 0 2.25 17.838l.792.528.066.666-10.26.018z" fill="#C375EF"/>
            <path d="M57.108 198.072s-1.152-5.112-4.254-7.644c0 0 2.598 3.6 3.45 9.648.852 6.048 1.758 2.208 1.758 2.208l-.954-4.212zM55.752 211.902a5.226 5.226 0 0 0-2.316-3s1.2 1.152 1.752 4.842c.552 3.69 1.932 1.656 1.932 1.656l.108-2.034-1.476-1.464z" fill="#C375EF"/>
            <path d="M55.2 213.738c-.6-3.69-1.752-4.842-1.752-4.842a5.4 5.4 0 0 1 1.992 2.178c.36-3.93.696-7.848.81-9.786 0-.384.042-.792.06-1.2-.852-6.072-3.444-9.648-3.444-9.648 1.8 1.47 2.946 3.816 3.6 5.52.054-3.996-.18-8.508-1.332-12.108a49.926 49.926 0 0 1 3.246 11.4s2.052-7.38 5.694-12.078c0 0-4.44 11.34-3.84 21.888a119.01 119.01 0 0 0 2.25 17.838l.792.528.066.666H53.058v-.798l1.326-1.122.816-8.436z" fill="#000" opacity=".2"/>
            <path d="M237.132 215.034a17.952 17.952 0 0 1-17.166-20.202c.45-3.528 1.926-6.828 2.97-10.2 1.974-6.432 2.604-13.686 7.128-18.66a14.886 14.886 0 0 1 22.014 0c2.934 3.21 4.326 7.566 4.932 11.874.606 4.308.51 8.682.912 13.02.336 3.6 1.02 7.2.876 10.8-.144 3.6-1.236 7.368-3.882 9.834a18.708 18.708 0 0 1-4.512 2.838 16.374 16.374 0 0 1-5.016 1.8 5.964 5.964 0 0 1-4.98-1.392 11.316 11.316 0 0 1-3.276.288z" fill="#C375EF"/>
            <path d="M237.132 215.034a17.952 17.952 0 0 1-17.166-20.202c.45-3.528 1.926-6.828 2.97-10.2 1.974-6.432 2.604-13.686 7.128-18.66a14.886 14.886 0 0 1 22.014 0c2.934 3.21 4.326 7.566 4.932 11.874.606 4.308.51 8.682.912 13.02.336 3.6 1.02 7.2.876 10.8-.144 3.6-1.236 7.368-3.882 9.834a18.708 18.708 0 0 1-4.512 2.838 16.374 16.374 0 0 1-5.016 1.8 5.964 5.964 0 0 1-4.98-1.392 11.316 11.316 0 0 1-3.276.288z" fill="#FFF" opacity=".7"/>
            <path d="M245.4 228.162v-.894l-1.494-1.272s-1.8-18.306-2.094-23.58c-.294-5.274-.672-13.644 1.272-19.698a56.172 56.172 0 0 0-3.654 12.882s-2.316-8.328-6.426-13.638c0 0 5.01 12.804 4.338 24.714a135.102 135.102 0 0 1-2.544 20.124l-.894.6-.078.744 11.574.018z" fill="#C375EF"/>
            <path d="M240.84 198.786s1.296-5.772 4.8-8.634c0 0-2.934 4.038-3.894 10.896-.96 6.858-1.992 2.484-1.992 2.484l1.086-4.746zM242.4 214.398a5.904 5.904 0 0 1 2.616-3.396s-1.338 1.302-1.974 5.466c-.636 4.164-2.19 1.848-2.19 1.848l-.114-2.292 1.662-1.626z" fill="#C375EF"/>
            <path d="M243 216.468c.636-4.164 1.974-5.466 1.974-5.466a6.036 6.036 0 0 0-2.256 2.46c-.402-4.434-.78-8.862-.906-11.046 0-.438-.048-.9-.072-1.374.96-6.852 3.894-10.89 3.894-10.89-2.04 1.662-3.33 4.308-4.056 6.234-.06-4.512.204-9.6 1.506-13.668a56.172 56.172 0 0 0-3.654 12.882s-2.316-8.328-6.426-13.638c0 0 5.01 12.804 4.338 24.714a135.102 135.102 0 0 1-2.544 20.124l-.894.6-.078.744H245.4v-.894l-1.494-1.272s-.42-4.392-.906-9.51z" fill="#000" opacity=".2"/>
        </g>
    </g>
</svg>
