<?xml version="1.0" encoding="iso-8859-1"?>
<!-- Generator: Adobe Illustrator 16.0.0, SVG Export Plug-In . SVG Version: 6.00 Build 0)  -->
<!DOCTYPE svg PUBLIC "-//W3C//DTD SVG 1.1//EN" "http://www.w3.org/Graphics/SVG/1.1/DTD/svg11.dtd">
<svg version="1.1" id="Capa_1" xmlns="http://www.w3.org/2000/svg" xmlns:xlink="http://www.w3.org/1999/xlink" x="0px" y="0px"
	 width="611.994px" height="611.995px" viewBox="0 0 611.994 611.995" style="enable-background:new 0 0 611.994 611.995;"
	 xml:space="preserve">
<g>
	<g id="_x32_">
		<g>
			<path d="M605.104,279.471c-12.229-16.108-37.88-39.057-37.88-39.057s-62.741-59.964-136.754-100.198
				c-69.141-37.494-180.224-39.792-256.113,1.582c-42.973,23.5-74.528,40.436-101.246,65.903
				c-22.949,21.938-45.217,36.041-45.217,36.041S0,285.006,0,306.613c0,21.403,27.656,62.336,27.656,62.336l79.438,68.938
				c0,0,46.247,29.365,96.226,47.901c35.839,13.258,145.525,31.37,233.807-15.759c76.9-41.006,132.599-94.848,132.599-94.848
				s24.64-27.545,36.151-41.796C613.637,323.659,614.685,292.122,605.104,279.471z M300.612,439.873
				c-70.813,0-128.204-57.427-128.204-128.259c0-70.85,57.409-128.259,128.204-128.259c70.813,0,128.203,57.409,128.203,128.259
				C428.815,382.446,371.426,439.873,300.612,439.873z M302.635,252.569c-32.676,0-59.173,26.534-59.173,59.229
				c0,32.694,26.498,59.191,59.173,59.191s59.174-26.479,59.174-59.191C361.809,279.085,335.311,252.569,302.635,252.569z"/>
		</g>
	</g>
</g>
<g>
</g>
<g>
</g>
<g>
</g>
<g>
</g>
<g>
</g>
<g>
</g>
<g>
</g>
<g>
</g>
<g>
</g>
<g>
</g>
<g>
</g>
<g>
</g>
<g>
</g>
<g>
</g>
<g>
</g>
</svg>
