<svg width="295" height="220" viewBox="0 0 295 220" xmlns="http://www.w3.org/2000/svg">
    <g style="mix-blend-mode:luminosity" fill-rule="nonzero" fill="none">
        <path fill="#EBEBEB" d="M0 193.105h294.906v1H0zM245.822 202.595h19.535v1h-19.535zM172.668 202.671h5.125v1h-5.125zM208.988 197.121h36.238v1h-36.238zM125.306 200.601h7.485v1h-7.485zM98.334 200.601h21.723v1H98.334zM30.942 198.112h14.999v1H30.942zM49.479 198.112H93.65v1H49.479zM139.786 166.799H25.899a3.368 3.368 0 0 1-3.362-3.368V3.338A3.368 3.368 0 0 1 25.899 0h113.887a3.368 3.368 0 0 1 3.367 3.368V163.43a3.368 3.368 0 0 1-3.367 3.368zM25.899.118a3.22 3.22 0 0 0-3.215 3.22v160.093a3.22 3.22 0 0 0 3.215 3.22h113.887a3.226 3.226 0 0 0 3.22-3.22V3.338a3.226 3.226 0 0 0-3.22-3.22H25.899zM267.368 166.799H153.475a3.374 3.374 0 0 1-3.368-3.368V3.338A3.374 3.374 0 0 1 153.475 0h113.893a3.368 3.368 0 0 1 3.356 3.338v160.093c0 1.856-1.5 3.361-3.356 3.368zM153.475.118a3.226 3.226 0 0 0-3.22 3.22v160.093a3.226 3.226 0 0 0 3.22 3.22h113.893a3.226 3.226 0 0 0 3.22-3.22V3.338a3.226 3.226 0 0 0-3.22-3.22H153.475z"/>
        <path fill="#E6E6E6" d="M255.873 114.724H112.525V10.015h143.348z"/>
        <path fill="#F0F0F0" d="M254.404 114.724H106.19V10.015h148.214z"/>
        <path fill="#FAFAFA" d="M245.527 18.886v86.968H115.055V18.886z"/>
        <path fill="#FFF" d="M213.813 105.848 184.11 18.886h-28.364l29.703 86.962zM179.356 105.848l-29.703-86.962H138.6l29.703 86.962z"/>
        <path fill="#E6E6E6" d="M116.188 18.886v86.968h-1.127V18.886z"/>
        <path fill="#E0E0E0" d="M88.702 86.242H38.084V14.48h50.618z"/>
        <path fill="#F5F5F5" d="M86.679 86.242H34.504V14.48h52.175z"/>
        <path fill="#FFF" d="M81.53 20.13v60.45H39.653V20.13z"/>
        <path d="M57.76 136.483c3.757-9.272 12.693-12.723 15.784-18.58 4.04-7.667 4.016-19.174.59-23.32-2.997-3.61-12.906 20.784-14.02 23.51a77.98 77.98 0 0 0-5.674 23.067c.082-5.727.159-10.988.224-15.046.212-13.236.472-17.494.59-18.804.412-.642.902-1.386 1.18-1.769 2.4-3.38 7.72-7.408 10.38-12.321 3.88-7.178 3.256-15.766.53-18.963-2.848-3.344-7.88 4.56-10.551 12.386-2.672 7.827-1.533 15.336-2.283 21.823-.153 1.274-.318 6.117-.465 12.84-.814-7.23-2.43-12.073-5.42-16.59-3.681-5.55-6.86-12.31-9.892-11.437-3.032.873-1.404 9.82.997 16.096 2.147 5.591 12.675 11.17 14.226 15.665-.183 9.107-.348 20.644-.46 31.396-.832-5.55-.26-6.016-3.669-14.515-2.023-5.05-10.31-11.278-11.312-7.81-1.003 3.469.513 10.027 3.645 14.628 2.53 3.704 8.14 3.698 9.437 5.998.3.537 1.303 2.595 1.875 3.775-.135 13.117-.194 24.701-.13 28.647l.543.042c0-1.02.042-7.668.148-16.515 1.362-4.719 10.534-7.438 13.365-12.327 2.949-5.114 5.096-11.083 3.822-15.076-1.062-3.332-9.437 1.18-12.805 6.718-2.259 3.68-3.64 7.603-4.282 12.876.077-6.016.165-12.48.248-18.58.69-1.533 2.241-5.036 3.38-7.814z" fill="#E6E6E6"/>
        <path d="M63.145 193.105H43.87a2.212 2.212 0 0 1-2.164-1.77l-1.369-6.724h26.347l-1.368 6.742a2.224 2.224 0 0 1-2.17 1.752z" fill="#F0F0F0"/>
        <path d="M67.239 187.2H39.783a1.298 1.298 0 0 1-1.286-1.15l-.59-4.984a1.298 1.298 0 0 1 1.286-1.439h28.57a1.292 1.292 0 0 1 1.286 1.44l-.59 4.983a1.298 1.298 0 0 1-1.22 1.15zM245.137 188.805h-5.892v-63.4h5.892z" fill="#F0F0F0"/>
        <path fill="#F0F0F0" d="M242.88 193.028H119.177v-4.223H242.88z"/>
        <path fill="#F5F5F5" d="M116.918 125.406h122.333v63.399H116.918z"/>
        <path fill="#E0E0E0" d="M246.724 125.406h-6.087v-4h6.087z"/>
        <path fill="#EBEBEB" d="M115.332 121.407h125.306v3.999H115.332z"/>
        <path d="M230.47 152.761H125.694a4.718 4.718 0 0 1-4.719-4.718v-13.566a4.718 4.718 0 0 1 4.719-4.718h104.774a4.718 4.718 0 0 1 4.719 4.718v13.566a4.718 4.718 0 0 1-4.719 4.718zm-104.775-21.823a3.539 3.539 0 0 0-3.539 3.54v13.565a3.539 3.539 0 0 0 3.539 3.539h104.774a3.539 3.539 0 0 0 3.539-3.54v-13.565a3.539 3.539 0 0 0-3.539-3.539H125.695zM230.47 181.184H125.694a4.718 4.718 0 0 1-4.719-4.718V162.9a4.718 4.718 0 0 1 4.719-4.718h104.774a4.718 4.718 0 0 1 4.719 4.718v13.566a4.718 4.718 0 0 1-4.719 4.718zm-104.775-21.87a3.539 3.539 0 0 0-3.539 3.54v13.565a3.539 3.539 0 0 0 3.539 3.539h104.774a3.539 3.539 0 0 0 3.539-3.54v-13.565a3.539 3.539 0 0 0-3.539-3.539H125.695z" fill="#FFF"/>
        <path d="M206.658 143.324h-57.152c-.845 0-1.53-.683-1.534-1.527v-1.12a1.534 1.534 0 0 1 1.534-1.528h57.152c.845 0 1.53.683 1.534 1.527v1.12a1.534 1.534 0 0 1-1.534 1.528zm-57.152-2.949a.36.36 0 0 0-.354.348v1.121a.36.36 0 0 0 .354.348h57.152c.194 0 .351-.155.354-.348v-1.12a.354.354 0 0 0-.354-.349h-57.152zM206.658 171.747h-57.152c-.845 0-1.53-.683-1.534-1.527v-1.12a1.534 1.534 0 0 1 1.534-1.528h57.152c.845 0 1.53.683 1.534 1.527v1.12a1.534 1.534 0 0 1-1.534 1.528zm-57.152-2.996a.36.36 0 0 0-.354.348v1.12a.36.36 0 0 0 .354.349h57.152c.194 0 .351-.155.354-.348v-1.12a.354.354 0 0 0-.354-.349h-57.152z" fill="#FFF"/>
        <g transform="translate(30.08 205.845)" fill="#F5F5F5">
            <ellipse cx="114.424" cy="7.219" rx="114.359" ry="6.677"/>
        </g>
        <g>
            <path fill="#B53EF0" d="m220.832 69.976.224-3.473.998.064-.224 3.473zM221.215 63.812l.736-11.412.998.064-.736 11.412zM214.951 35.825H145.62a7.16 7.16 0 0 0-7.013 6.6l-8.96 138.311a6.134 6.134 0 0 0 6.176 6.606h69.32a7.173 7.173 0 0 0 7.031-6.606l8.954-138.31a6.128 6.128 0 0 0-6.176-6.601z"/>
            <path d="M212.751 35.825H145.62a7.16 7.16 0 0 0-7.013 6.6l-8.96 138.311a6.134 6.134 0 0 0 6.176 6.606h67.12a7.173 7.173 0 0 0 7.031-6.606l8.954-138.31a6.128 6.128 0 0 0-6.176-6.601z" fill="#FFF" opacity=".7"/>
            <path d="M207.089 177.12h-73.844a2.017 2.017 0 0 1-2.017-2.147l8.103-125.157a2.016 2.016 0 0 1 2.012-1.888h73.85a2.021 2.021 0 0 1 2.017 2.153l-8.104 125.152a2.017 2.017 0 0 1-2.017 1.888zM190.68 43.835h-26.842a.997.997 0 0 1-1.003-1.074 1.18 1.18 0 0 1 1.139-1.067h26.842a.99.99 0 0 1 1.003 1.067 1.18 1.18 0 0 1-1.139 1.074zM169.73 182.376a2.802 2.802 0 0 1-2.766 2.63 2.477 2.477 0 0 1-2.495-2.63 2.802 2.802 0 0 1 2.766-2.625 2.471 2.471 0 0 1 2.495 2.625z" fill="#FFF"/>
            <path d="M199.044 82.574h-63.057l-4.01 61.871h67.067a6.618 6.618 0 0 0 6.606-6.6V89.197a6.618 6.618 0 0 0-6.606-6.623z" fill="#B53EF0" opacity=".2"/>
        </g>
        <g transform="translate(103.217 71.957)">
            <rect fill="#B53EF0" x="6.069" y="5.137" width="90.489" height="61.877" rx="6.606"/>
            <path d="M3.958 4.424a.59.59 0 0 1-.413-.171L2.483 3.197a.592.592 0 0 1 .838-.838l1.055 1.062a.59.59 0 0 1 0 .832.59.59 0 0 1-.418.17zM2.36 8.128H.866a.59.59 0 1 1 0-1.18h1.492a.59.59 0 1 1 0 1.18zM7.715 2.831a.59.59 0 0 1-.59-.548L7.019.79a.59.59 0 0 1 .548-.63.59.59 0 0 1 .625.548L8.305 2.2a.59.59 0 0 1-.549.631h-.041zM57.914 60.65l23.728 23.723V60.65z" fill="#B53EF0"/>
            <path d="m64.42 50.258-1.18-5.008a9.06 9.06 0 0 1 0-3.999l1.64-7.13a13.984 13.984 0 0 0-7.397-15.518c.052-.132.098-.265.136-.401a3.376 3.376 0 1 0-6.588-1.475c-.03.138-.047.278-.054.419a13.99 13.99 0 0 0-13.312 10.876l-1.598 7.137a9.006 9.006 0 0 1-1.71 3.603l-3.18 4.04a2.984 2.984 0 0 0 1.693 4.755l28.016 6.275a2.979 2.979 0 0 0 3.533-3.574zM43.263 51.803a1.327 1.327 0 0 0-1.593 1.528 4.842 4.842 0 0 0 8.747 1.958 1.327 1.327 0 0 0-.784-2.058l-6.37-1.428zM21.746 41.877a.874.874 0 0 1-.737-.395c-5.8-8.691-3.459-20.44 5.232-26.241a.885.885 0 1 1 .979 1.474c-7.867 5.27-9.979 15.915-4.719 23.787a.885.885 0 0 1-.755 1.375z" fill="#FFF"/>
            <path d="M25.492 39.364a.885.885 0 0 1-.732-.395c-4.415-6.62-2.633-15.565 3.982-19.989a.887.887 0 1 1 .985 1.475c-5.807 3.875-7.373 11.722-3.498 17.529a.885.885 0 0 1-.242 1.227.908.908 0 0 1-.495.153z" fill="#FFF"/>
            <path d="M29.243 36.857a.873.873 0 0 1-.731-.389 9.897 9.897 0 0 1 2.748-13.737.885.885 0 0 1 .985 1.469 8.134 8.134 0 0 0-2.247 11.283.89.89 0 0 1-.242 1.227.897.897 0 0 1-.513.147zM72.753 54.316a.885.885 0 0 1-.407-1.67c8.415-4.347 11.715-14.69 7.373-23.108a.885.885 0 1 1 1.569-.808 18.921 18.921 0 0 1-8.151 25.491.932.932 0 0 1-.384.095z" fill="#FFF"/>
            <path d="M70.683 50.311a.885.885 0 0 1-.407-1.67 12.634 12.634 0 0 0 5.432-17.033.886.886 0 0 1 1.575-.814 14.403 14.403 0 0 1-6.193 19.417.85.85 0 0 1-.407.1z" fill="#FFF"/>
            <path d="M68.613 46.306a.89.89 0 0 1-.407-1.675 8.122 8.122 0 0 0 3.497-10.953.886.886 0 1 1 1.575-.814c2.5 4.864.59 10.833-4.27 13.342a.902.902 0 0 1-.395.1z" fill="#FFF"/>
        </g>
        <g>
            <path d="M119.944 41.788h-4.506a.495.495 0 0 0-.478.425l-.943 8.989a.383.383 0 0 0 .383.43h4.506a.495.495 0 0 0 .478-.43l.944-8.99a.377.377 0 0 0-.384-.424z" fill="#B53EF0"/>
            <path d="M119.537 41.788h-4.099a.495.495 0 0 0-.478.425l-.943 8.989a.383.383 0 0 0 .383.43h4.129a.49.49 0 0 0 .472-.43l.943-8.99a.372.372 0 0 0-.407-.424z" fill="#FFF" opacity=".4"/>
            <path d="M97.36 207.997c.59 0 1.18-.088 1.386-.36a.436.436 0 0 0 0-.495.625.625 0 0 0-.371-.265c-.802-.219-2.43.737-2.501.778a.106.106 0 0 0-.047.112.118.118 0 0 0 .094.095c.475.085.957.13 1.44.135zm.72-.926a.855.855 0 0 1 .218 0 .39.39 0 0 1 .23.16c.083.141.06.212 0 .247-.206.313-1.415.319-2.306.195a4.842 4.842 0 0 1 1.858-.602z" fill="#B53EF0"/>
            <path d="M95.91 207.862h.047c.59-.26 1.663-1.292 1.55-1.835 0-.124-.123-.283-.436-.312a.82.82 0 0 0-.619.188c-.59.502-.655 1.77-.66 1.84a.124.124 0 0 0 .053.107c.02.01.042.014.064.012zm1.085-1.935h.065c.206 0 .224.1.224.124.07.324-.673 1.138-1.245 1.492a2.572 2.572 0 0 1 .59-1.474.59.59 0 0 1 .366-.142z" fill="#B53EF0"/>
            <path fill="#FF8B7B" d="M90.648 196.69h4.777v11.06h-4.777zM56.003 202.477l4.771.519 3.109-10.735-4.772-.519z"/>
            <path d="M62.992 204.075c.59.153 1.18.218 1.445 0a.419.419 0 0 0 .094-.484.59.59 0 0 0-.295-.342c-.737-.407-2.565.106-2.642.124a.112.112 0 0 0-.082.1c0 .048.027.092.07.113.455.202.927.366 1.41.49zm.932-.708c.071.018.14.043.206.077a.372.372 0 0 1 .189.206c.047.16 0 .219 0 .254-.283.242-1.469-.047-2.312-.39a4.966 4.966 0 0 1 1.917-.14v-.007z" fill="#B53EF0"/>
            <path d="M61.606 203.597h.047c.59-.112 1.946-.831 1.97-1.374 0-.13-.047-.307-.348-.413a.843.843 0 0 0-.655.036c-.696.336-1.085 1.55-1.103 1.598a.112.112 0 0 0 0 .112.1.1 0 0 0 .089.041zm1.533-1.586h.071c.195.07.189.153.189.177 0 .33-.944.926-1.593 1.12.164-.51.486-.954.92-1.268a.59.59 0 0 1 .413-.03z" fill="#B53EF0"/>
            <path d="m61.028 202.553-5.22-1.498a.401.401 0 0 0-.472.2l-1.923 3.817a.725.725 0 0 0 .478 1.008c1.829.49 2.743.643 5.037 1.298 1.41.407 4.282 1.386 6.234 1.946 1.953.56 2.672-1.274 1.917-1.675-3.385-1.799-4.47-3.25-5.367-4.594a1.22 1.22 0 0 0-.684-.502zM95.373 207.195h-5.214a.39.39 0 0 0-.39.33l-.76 4.218a.737.737 0 0 0 .725.855c1.882-.036 4.595-.148 6.96-.148 2.766 0 4.276.154 7.52.154 1.958 0 2.418-1.982 1.587-2.165-3.77-.814-5.946-.902-9.26-2.896a2.36 2.36 0 0 0-1.168-.348z" fill="#263238"/>
            <path fill="#000" opacity=".2" d="M90.648 196.69h4.777v5.703h-4.777zM59.111 191.748l4.772.513-1.729 5.957-4.647-.938z"/>
            <path d="M87.57 86.702s-2.637 36.062-4.996 49.733c-2.601 14.976-17.736 60.828-17.736 60.828l-8.67-1.587s10.93-43.056 12.138-57.884c1.315-16.09 2.896-49.255 2.896-49.255l16.367-1.835z" fill="#B53EF0"/>
            <path d="M83.128 101.684c.472-1.982 1.557.513 2.82 4.836-.956 10.7-2.2 23.091-3.392 29.921-.265 1.528-.666 3.38-1.18 5.48.455-15.265.472-34.876 1.752-40.237z" fill="#000" opacity=".3"/>
            <path d="M96.576 85.723s3.462 36.25 3.58 50.813c.124 15.152-2.996 64.755-2.996 64.755h-8.098s-2.43-48.718-3.439-63.6c-1.103-16.22-5.745-50.133-5.745-50.133l16.698-1.835z" fill="#B53EF0"/>
            <path d="M66.649 194.343c.035 0-1.363 3.144-1.363 3.144l-9.755-1.77.59-2.92 10.528 1.546zM98.575 198.065c.036 0-.312 3.362-.312 3.362h-9.838l-.401-2.996 10.551-.366z" fill="#263238"/>
            <path d="M71.438 53.413c-.649 1.257-1.362 2.578-2.011 3.881l-1.982 3.929a184.32 184.32 0 0 0-1.881 3.94 57.29 57.29 0 0 0-1.67 3.934l-.047-2.065c.345 1.06.759 2.097 1.239 3.103.23.519.525 1.014.778 1.527.254.513.59 1.003.891 1.487.626 1 1.303 1.966 2.029 2.896.366.465.731.943 1.12 1.391.39.449.814.915 1.18 1.298l.118.13a1.699 1.699 0 0 1-2.088 2.624c-.61-.343-1.2-.719-1.77-1.126a20.45 20.45 0 0 1-1.639-1.227 28.187 28.187 0 0 1-2.984-2.837 25.84 25.84 0 0 1-2.566-3.315 25.362 25.362 0 0 1-2.04-3.763 2.542 2.542 0 0 1-.125-1.77l.083-.276c.448-1.54.95-3.032 1.504-4.495a84.355 84.355 0 0 1 1.77-4.305 96.335 96.335 0 0 1 1.97-4.176 76.574 76.574 0 0 1 2.182-4.093 3.42 3.42 0 0 1 6.004 3.279l-.065.03z" fill="#FF8B7B"/>
            <path d="M74.824 51.314c.236 4.5-4.872 12.763-4.872 12.763l-10.517-5.255a30.96 30.96 0 0 1 5.828-10.162c5.562-6.146 9.342-1.475 9.56 2.654z" fill="#263238"/>
            <path d="m67.699 80.645 2.117 3.539 4.406-2.82a7.137 7.137 0 0 0-3.427-3.084 1.475 1.475 0 0 0-1.77.749L67.7 80.645zM71.58 85.694l2.046-.384a1.327 1.327 0 0 0 1.062-1.557l-.466-2.359-4.406 2.82.295.713c.249.569.86.888 1.469.767z" fill="#FF8B7B"/>
            <path d="M84.007 28.7c.041.384.283.684.53.66.249-.023.414-.347.366-.73-.047-.384-.283-.685-.53-.667-.248.018-.413.348-.366.737z" fill="#263238"/>
            <path d="M84.255 29.384a14.84 14.84 0 0 0 2.211 3.162c-.59.69-1.769.49-1.769.49l-.442-3.652z" fill="#FF5652"/>
            <path d="M82.355 26.665c.063.01.126-.01.172-.053a1.71 1.71 0 0 1 1.55-.418.212.212 0 0 0 .272-.154.236.236 0 0 0-.16-.283 2.176 2.176 0 0 0-1.97.507.224.224 0 0 0 0 .325.2.2 0 0 0 .136.076z" fill="#263238"/>
            <path d="M72.116 32.97c1.127 3.416 2.625 9.709.49 12.233 0 0 1.404 3.439 7.868 2.89 7.119-.59 2.95-3.804 2.95-3.804-4-.59-4.271-3.474-3.94-6.228l-7.368-5.09z" fill="#FF8B7B"/>
            <path d="M71.078 46.448c-.666-1.068-1.41-2.289-.147-2.743 1.386-.501 9.171-1.315 11.944-.631 2.772.684 2.205 2.95 2.205 2.95l-14.002.424z" fill="#B53EF0"/>
            <path d="M93.875 47.887c1.014.932 2.111 1.964 3.202 2.908 1.091.943 2.194 1.91 3.303 2.843a78.729 78.729 0 0 0 3.38 2.665 49.75 49.75 0 0 0 3.45 2.36l-2.36-.224a8.806 8.806 0 0 0 2.744-1.268 17.977 17.977 0 0 0 2.7-2.318 31.142 31.142 0 0 0 2.484-2.873c.395-.513.79-1.032 1.18-1.569.389-.536.743-1.103 1.067-1.598l.065-.095a1.705 1.705 0 0 1 3.061 1.416c-.224.767-.46 1.421-.731 2.106a30.581 30.581 0 0 1-.873 2.017 27.255 27.255 0 0 1-2.26 3.863 20.23 20.23 0 0 1-3.125 3.539 13.79 13.79 0 0 1-4.453 2.666 2.82 2.82 0 0 1-2.17-.124l-.195-.1a42.508 42.508 0 0 1-4.259-2.407 56.694 56.694 0 0 1-3.887-2.736c-1.25-.968-2.46-1.947-3.639-2.95a51.414 51.414 0 0 1-3.462-3.226 3.42 3.42 0 0 1 4.748-4.919l.03.024z" fill="#FF8B7B"/>
            <path d="M90.27 44.826s5.946 5.768 6.636 41.446c-9.508 2.306-18.656 3.155-25.722 2.259-.336-4.477-.837-20.013-5.379-36.392a5.173 5.173 0 0 1 4.005-6.488 45.298 45.298 0 0 1 2.796-.46 94.022 94.022 0 0 1 10.817-.914c2.293.019 4.581.202 6.848.549z" fill="#263238"/>
            <path d="M85.658 51.042c.59 4.465 8.258 13.047 8.258 13.047l9.1-9.437a74.676 74.676 0 0 0-8.74-7.839c-6.671-4.984-9.148.089-8.618 4.23z" fill="#263238"/>
            <path d="m117.561 51.703 3.044-2.79-3.645-3.745a7.137 7.137 0 0 0-2.36 3.975 1.475 1.475 0 0 0 1.121 1.58l1.84.98z" fill="#FF8B7B"/>
            <path d="m121.725 46.884-.784-1.929a1.333 1.333 0 0 0-1.77-.725l-2.235.938 3.645 3.745.637-.43a1.327 1.327 0 0 0 .507-1.599zM71.208 28.9c.855 4.72 1.115 7.515 3.769 9.762 3.993 3.38 9.502.75 10.027-4.07.495-4.34-.985-11.33-5.786-12.852-4.801-1.521-8.865 2.442-8.01 7.16z" fill="#FF8B7B"/>
            <path d="M80.51 30.6c1.657.377 2.948-1.54 3.125-2.083-.808.077-2.24-.336-2.524-.701.885.076 1.74-1.015 1.846-1.434a3.68 3.68 0 0 1-2.318-1.504c1.433-.03 3.156-2.554 1.58-4.813-1.574-2.259-8.156-.365-9.082-1.975-1.38.802-.154 1.87-.154 1.87s-9.313 1.769-5.019 5.36c-3.15.284-3.592 4.005-.967 5.899 2.624 1.893 2.76 3.143 1.716 2.99.419.802 2.289.908 2.395.13.442 1.634 1.716 3.845 4.653 3.486 2.938-.36 5.816-4.471 4.748-7.226z" fill="#263238"/>
            <path d="M68.778 24.772c-2.218.307-3.226-.944-2.672-2.047-2.748 1.404.254 4.507 2.672 2.047z" fill="#263238"/>
            <path d="M78.215 29.88a5.19 5.19 0 0 0 1.935 2.43c1.18.778 2.247 0 2.046-1.18-.183-1.085-1.014-2.801-2.241-3.108a1.404 1.404 0 0 0-1.74 1.858z" fill="#FF8B7B"/>
        </g>
        <g>
            <path d="M228.128 196.124c-4.365-10.298-6.129-22.412-1.133-21.911 5.126.495 4.524 18.756 5.356 20.761-1.599 1.375-4.223 1.15-4.223 1.15z" fill="#B53EF0"/>
            <path d="M229.543 176.584c-1.073 3.928-2.212 9.997-3.079 15.14a65.194 65.194 0 0 0 1.664 4.4s2.618.225 4.229-1.15c-.661-1.58-.425-13.282-2.814-18.39z" fill="#263238"/>
            <path d="M229.567 194.237c-1.369-21.882 2.359-42.166 12.173-41.251 8.423.79-3.857 37.63-3.621 41.876-3.857 1.498-8.552-.625-8.552-.625z" fill="#B53EF0"/>
            <path d="M235.925 194.095c1.54-15.73 9.838-34.085 13.4-27.95 4.524 7.785-7.077 26.328-7.39 29.378-2.902.625-6.01-1.428-6.01-1.428zM234.374 158.83c-.997-.165-1.551-.784-1.487-1.663.071-.99.885-1.976 1.64-1.987.366 0 .98.188 1.133 1.55l-.59.072c-.071-.65-.266-1.033-.525-1.033-.401 0-1.015.732-1.062 1.44-.041.59.29.92.991 1.038l-.1.584zM244.967 162.788a2.235 2.235 0 0 1-1.18-.454l.319-.49c.548.354.973.449 1.138.248.248-.318.077-1.25-.436-1.74-.413-.395-.897-.365-1.434.106l-.383-.448a1.54 1.54 0 0 1 2.223-.082c.72.684.962 1.934.49 2.53a.873.873 0 0 1-.737.33zM230.51 171.694a1.469 1.469 0 0 1-1.545-1.18c-.236-.96.236-2.146.956-2.394.336-.112.985-.124 1.55 1.133l-.542.247c-.265-.59-.59-.908-.82-.82-.377.13-.737 1.009-.59 1.693.136.59.59.79 1.263.684l.088.59a2.117 2.117 0 0 1-.36.047zM224.229 183.91a1.427 1.427 0 0 1-1.35-.88c-.414-.902-.172-2.158.483-2.536.313-.177.95-.306 1.74.826l-.484.336c-.377-.536-.737-.778-.961-.648-.348.2-.537 1.132-.242 1.769.242.525.702.666 1.368.43l.195.56c-.24.091-.493.14-.749.142z" fill="#B53EF0"/>
            <path d="M234.68 166.103a.307.307 0 0 1-.17-.053 1.734 1.734 0 0 1-.78-2.141 1.988 1.988 0 0 1 2.06-1.18c.365.065 1.22.39 1.28 1.958a.295.295 0 0 1-.59 0c-.036-.82-.313-1.315-.797-1.403a1.416 1.416 0 0 0-1.41.843c-.212.501 0 1.009.59 1.427a.295.295 0 0 1-.17.537l-.013.012zM241.67 182.022a.283.283 0 0 1-.283-.236.289.289 0 0 1 .224-.348c.802-.165 1.244-.525 1.256-1.014a1.421 1.421 0 0 0-1.068-1.25c-.53-.13-1.002.158-1.315.807a.295.295 0 1 1-.53-.26 1.77 1.77 0 0 1 1.981-1.126 2.005 2.005 0 0 1 1.522 1.834c0 .372-.189 1.269-1.722 1.587l-.065.006z" fill="#FFF"/>
            <path d="M249.962 177.05c-.342 0-.796-.2-1.303-.962l.49-.33c.365.543.713.79.943.667.354-.19.59-1.121.277-1.77-.224-.525-.684-.678-1.356-.46l-.183-.56c.956-.313 1.734 0 2.082.79.395.909.13 2.159-.537 2.519a.82.82 0 0 1-.413.106z" fill="#B53EF0"/>
            <path d="M248.205 199.87a13.112 13.112 0 0 0-3.18-8.576.855.855 0 0 0 .732-.838.873.873 0 0 0-.873-.867h-19.747a.861.861 0 0 0-.13 1.71 13.165 13.165 0 0 0 3.84 20.237.955.955 0 0 0 .443 1.805h11.436a.961.961 0 0 0 .956-.955.967.967 0 0 0-.514-.85 13.188 13.188 0 0 0 7.037-11.666z" fill="#263238"/>
        </g>
    </g>
</svg>
