<svg width="25" height="25" viewBox="0 0 25 25" xmlns="http://www.w3.org/2000/svg">
    <defs>
        <linearGradient x1="16.529%" y1="100%" x2="83.471%" y2="0%" id="a">
            <stop stop-color="#B53EF0" offset="0%"/>
            <stop stop-color="#8A24BD" offset="100%"/>
        </linearGradient>
    </defs>
    <g fill="none" fill-rule="evenodd">
        <path d="M3 3h19v19H3z"/>
        <path d="m9.5.792 6.505 1.445c.362.081.62.402.62.773v7.906a4.75 4.75 0 0 1-2.115 3.952l-5.01 3.34-5.01-3.34a4.748 4.748 0 0 1-2.115-3.95V3.01c0-.371.258-.692.62-.773L9.5.792zm3.524 5.717-3.918 3.918-2.24-2.239-1.119 1.12 3.36 3.359 5.038-5.038-1.12-1.12z" fill="url(#a)" transform="translate(3 3)"/>
    </g>
</svg>
