<svg width="24" height="24" viewBox="0 0 24 24" xmlns="http://www.w3.org/2000/svg">
    <g fill="none" fill-rule="evenodd">
        <path d="M2.88 2.88h18.24v18.24H2.88z"/>
        <path d="m9.481 5.92 1.982-1.981a.76.76 0 0 1 1.074 0L14.52 5.92h2.801c.42 0 .76.34.76.76v2.801l1.981 1.982a.76.76 0 0 1 0 1.074L18.08 14.52v2.801c0 .42-.34.76-.76.76h-2.801l-1.982 1.981a.76.76 0 0 1-1.074 0L9.48 18.08H6.68a.76.76 0 0 1-.76-.76v-2.801l-1.981-1.982a.76.76 0 0 1 0-1.074L5.92 9.48V6.68c0-.42.34-.76.76-.76h2.801zM12 14.28a2.28 2.28 0 1 0 0-4.56 2.28 2.28 0 0 0 0 4.56z" fill="#5E6267" fill-rule="nonzero"/>
    </g>
</svg>
