<svg width="20" height="20" viewBox="0 0 20 20" xmlns="http://www.w3.org/2000/svg">
    <g fill="none" fill-rule="evenodd">
        <path d="M2.4 2.4h15.2v15.2H2.4z"/>
        <path d="m5.263 6.158-1.98-1.98.895-.896 12.54 12.54-.896.896-2.097-2.097A6.97 6.97 0 0 1 3.148 10a6.955 6.955 0 0 1 2.115-3.842zm6.483 6.484-.927-.927a1.9 1.9 0 0 1-2.534-2.534l-.927-.927a3.167 3.167 0 0 0 4.388 4.388zM7.45 4.782A6.97 6.97 0 0 1 16.852 10a6.933 6.933 0 0 1-1.274 2.907l-2.445-2.444a3.167 3.167 0 0 0-3.597-3.598L7.45 4.782z" fill="#5E6267" fill-rule="nonzero"/>
    </g>
</svg>
