<svg width="25" height="25" viewBox="0 0 25 25" xmlns="http://www.w3.org/2000/svg">
    <g fill="none" fill-rule="evenodd">
        <path d="M3 3h19v19H3z"/>
        <path d="m17.275 16.155 3.39 3.39-1.12 1.12-3.39-3.39a7.093 7.093 0 0 1-4.447 1.558 7.128 7.128 0 0 1-7.125-7.125 7.128 7.128 0 0 1 7.125-7.125 7.128 7.128 0 0 1 7.125 7.125 7.093 7.093 0 0 1-1.558 4.447zm-1.589-.587a5.523 5.523 0 0 0 1.564-3.86 5.54 5.54 0 0 0-5.542-5.541 5.54 5.54 0 0 0-5.541 5.541 5.54 5.54 0 0 0 5.541 5.542 5.523 5.523 0 0 0 3.86-1.564l.118-.118z" fill="#FFF" fill-rule="nonzero"/>
    </g>
</svg>
