<svg width="178" height="50" viewBox="0 0 178 50" xmlns="http://www.w3.org/2000/svg">
    <g fill-rule="nonzero" fill="none">
        <path d="M72.45 44.64a2.808 2.808 0 0 0-.254-.238c.08.058.162.12.241.183l.013.054" fill="#FFF"/>
        <path d="M72.65 11.335a3.99 3.99 0 0 0-.36-.337c.113.083.23.17.343.26l.018.077" fill="#B53EF0"/>
        <path d="M69.339 29.065c-.35.271-.65.407-.9.407-.22 0-.33-.136-.33-.407 0-.396.125-.961.377-1.696l.007-.022c.405-1.232 1.092-2.566 1.563-3.412a8.316 8.316 0 0 1 .507-.873c.206-.306.413-.553.623-.743.1-.1.15-.19.15-.271 0-.12-.07-.225-.21-.316a2.809 2.809 0 0 0-.984-.415l-.003-.001a1.999 1.999 0 0 0-.405-.07c-.36-.028-.908.01-1.426.369a1.908 1.908 0 0 0-.26.253c-.01 0-.015.005-.015.014l-.015.016c0 .01-.005.015-.014.015a.397.397 0 0 0-.075.105c-.61.894-1.142 1.933-1.592 3.117-.81 2.149-1.215 3.805-1.215 4.97v.225c.01.653.28 1.18.81 1.581.21.14.485.211.826.211 1.02 0 2.046-.497 3.076-1.49.701-.684 1.336-1.542 1.907-2.576l.015.015c-.14.412-.275.834-.405 1.265-.16.492-.24.939-.24 1.34 0 .131.01.262.03.392.11.713.74 1.07 1.89 1.07.731 0 1.422-.186 2.072-.558.116-.067.18-.138.287-.222l.048-.042c.017-.02.226-.198.506-.54.207-.253.454-.568.7-.908l.004-.005a7.4 7.4 0 0 0 .464-.682c.225-.357.419-.714.538-1.033h-.001c.144-.324.277-.665.396-1.025a5.13 5.13 0 0 0 .214-.798c.222.09.456.135.701.135.22 0 .451-.035.691-.105.7-.191 1.29-.462 1.771-.813.18-.13.286-.196.315-.196.07 0 .106.035.106.105 0 .071-.043.21-.13.416l-.005.014-.766 1.964-.315.783c-.24.613-.36 1.155-.36 1.627 0 .341.064.642.195.903.34.633 1.135.949 2.386.949.334 0 .683-.06 1.048-.182.047-.031.865-.378 2.045-1.915.22-.309.417-.63.585-.963 0-.003.002-.005.003-.007.362-.719.6-1.498.721-2.336.382.412.935.777 1.662 1.096.79.342 1.266.562 1.426.663l.03.015c.33.18.556.331.676.452.44.36.71.712.81 1.054l-.165-.136c-.1-.08-.255-.12-.466-.12-.07.231-.285.434-.645.61-.36.176-.66.266-.9.27-.24.006-.376.008-.405.008-.42 0-.766-.15-1.036-.452a.543.543 0 0 1-.106-.316.8.8 0 0 1 .196-.542c.17-.2.39-.356.66-.467.28-.14.42-.22.42-.24 0-.262-.103-.41-.307-.445a3.146 3.146 0 0 0-.413-.053c-.29 0-.585.076-.886.227-.58.3-.915.838-1.005 1.61v.076a1.914 1.914 0 0 0 .078.554c.063.2.385 1.01 1.598 1.388.223.043.434.078.63.103.255.031.487.048.696.048.4 0 .8-.04 1.2-.12 1.181-.231 2.05-.676 2.605-1.333a4.37 4.37 0 0 0 .37-.505v-.001c.595-.992.15-2.152.096-2.287a.072.072 0 0 0-.005-.011v-.001c-.215-.424-.586-.806-1.114-1.148a14.356 14.356 0 0 0-1.576-.843c-.43-.2-.788-.391-1.073-.572-.285-.181-.428-.377-.428-.588.01-.24.12-.472.33-.692.32-.311.728-.57 1.223-.776.495-.206.958-.309 1.389-.309.57 0 1.04.09 1.41.272h-.3c-.21.02-.36.055-.45.105-.04.21-.25.342-.63.392-.6.09-.921.306-.961.647 0 .322.143.575.428.76.285.187.593.28.923.28.66 0 1.236-.196 1.726-.588.52-.432.78-.938.78-1.52 0 0 .024-.211-.05-.501l-.002-.008c-.111-.428-.435-1.025-1.355-1.379h-.003l-.001-.001a6.815 6.815 0 0 0-1.875-.28c-.629 0-1.225.07-1.79.212-.004 0-.013.003-.026.007a6.354 6.354 0 0 0-1.85.794l-.155.092c-.523.314-1.039.714-1.393 1.201a.045.045 0 0 0-.005.007c-.414.608-.62 1.192-.62 1.752 0 .326.07.633.207.92a15.29 15.29 0 0 0-.147.195c-.09.16-.23.386-.42.677-.861 1.396-1.567 2.334-2.117 2.816-.18.16-.34.241-.48.241a.184.184 0 0 1-.105-.03c-.02.09-.03.166-.03.225v.106a.933.933 0 0 1-.15-.527c0-.391.044-.677.134-.858.26-1.034.66-2.113 1.201-3.238.69-1.485 1.046-2.47 1.066-2.95l.015-.197c0-.123-.009-.237-.027-.339v-.005c-.184-.905-1.206-.667-1.267-.653l-.002.001c-.241.074-.48.191-.715.349-.34.23-.696.501-1.066.813-.44.371-.9.715-1.38 1.031a4.13 4.13 0 0 1-1.502.625l.18-.18c.15-.151.24-.247.27-.286-.4-.09-.6-.287-.6-.588 0-.31.16-.547.48-.708.1-.04.196-.06.285-.06.23 0 .346.151.346.452-.01.13-.09.28-.24.451v.016c.07.04.15.06.24.06.3 0 .63-.103.99-.309.36-.205.566-.48.616-.82a1 1 0 0 0-.285-.72l-.023-.023c-.138-.13-.87-.742-2.16-.438a5.05 5.05 0 0 0-1.734 1.466c-.462.603-.727 1.093-.797 1.47-.07.376-.104.623-.104.745 0 .444.158.823.472 1.137-.012.017-.025.033-.037.052-.26.34-.505.687-.736 1.039-.5.773-1.135 1.52-1.906 2.244-.38.351-.67.526-.87.526h-.015c-.04.111-.06.252-.06.422v.075a1.106 1.106 0 0 1-.166-.587c0-.361.11-.873.33-1.536.17-.491.35-.978.54-1.46l.004-.008.005-.012c.049-.116.31-.74.59-1.462.081-.21.164-.43.244-.646l.003-.007c.467-1.194.701-1.984.701-2.368 0-.22-.035-.397-.105-.527-.28-.422-.75-.632-1.411-.632-.38 0-.675.145-.886.437-.21.29-.5.944-.87 1.957a13.864 13.864 0 0 1-2.117 3.84 9.138 9.138 0 0 1-1.666 1.686M100.576 23.72c.609-.543 1.19-.814 1.741-.814.36 0 .641.096.84.285.2.193.3.418.3.68 0 .56-.32.982-.962 1.264-.491.221-1.118.332-1.89.332-.51 0-.916-.1-1.215-.3a5.348 5.348 0 0 1 1.186-1.447m14.76-1.136c-.146-.386-.485-.854-1.247-1.182-.003 0-.003 0-.003-.004l-.228-.064a6.753 6.753 0 0 0-1.71-.236c-.473 0-.925.043-1.36.122-.032.003-.06.01-.092.017-.032.007-.068.011-.1.018-.003 0-.01.004-.014.004-.826.178-1.585.5-2.275.972 0-.004.003-.008.007-.011-1.097.743-1.628 1.6-1.681 1.693-.004.003-.004.007-.004.007-.213.429-.32.843-.32 1.247 0 .236.036.46.11.679-.053.06-.11.128-.17.207a8.33 8.33 0 0 0-.375.571 9.5 9.5 0 0 1-1.577 1.854c-.99.883-2.083 1.326-3.273 1.326-.95 0-1.609-.208-1.972-.626-.367-.417-.549-.875-.549-1.378 0-.279.05-.593.15-.933l.09-.318a1.929 1.929 0 0 1-.118-.646c0-.1.007-.186.028-.257l.046-.104a2.401 2.401 0 0 0 1.012 1.36c.377.255.776.412 1.193.473 0 0 2.4.164 4.07-1.908h.003c.427-.557.709-1.108.851-1.658l.014-.028c.06-.222.093-.432.093-.633 0-.914-.523-1.553-1.563-1.914-.31-.061-.63-.09-.962-.09-.38 0-.776.043-1.185.13-3.209.781-5.495 3.171-5.573 3.257h-.004c-.463.614-.8 1.125-1.011 1.536l-.299.636a3.996 3.996 0 0 0-.377 1.654c0 .582.145 1.154.434 1.718a3.67 3.67 0 0 0 1.652 1.504c.762.354 1.595.529 2.507.529a8.6 8.6 0 0 0 1.528-.147c.26-.043.512-.1.758-.167a7.252 7.252 0 0 0 1.877-.862c.1-.064.195-.128.288-.192l.003-.004a6.468 6.468 0 0 0 1.215-1.047l.06-.06.054-.065.035-.039.011-.014a6.918 6.918 0 0 0 1.164-2.012c.118-.31.2-.632.25-.967.377.482.983.907 1.809 1.268.79.342 1.264.564 1.424.664l.032.014c.328.182.555.333.673.45.441.361.712.715.812 1.054l-.164-.132c-.1-.082-.256-.121-.466-.121-.072.228-.285.432-.645.607-.36.179-.662.268-.9.271-.243.008-.378.008-.407.008-.42 0-.765-.15-1.036-.45a.56.56 0 0 1-.103-.315c0-.214.064-.393.192-.543.171-.2.392-.357.662-.468.282-.14.42-.221.42-.24 0-.26-.103-.41-.306-.446a3.859 3.859 0 0 0-.413-.053c-.292 0-.587.078-.886.228-.58.3-.916.836-1.005 1.611v.075a1.827 1.827 0 0 0 .036.386c.04.175.153.536.47.879v.004c.029.032.06.064.093.092.26.247.633.476 1.168.597.003 0 .003 0 .003.003.15.033.314.061.488.08h.01c.271.035.514.053.734.053.399 0 .798-.04 1.2-.122 1.179-.228 2.048-.675 2.603-1.332.189-.222.342-.447.467-.672.185-.414.249-.75.249-1.046 0-.168-.021-.322-.053-.472l-.011-.032a2.084 2.084 0 0 0-.356-.861l-.007-.007s-.004 0-.004-.004c-.22-.31-.534-.596-.936-.857a14.385 14.385 0 0 0-1.578-.847c-.43-.2-.787-.39-1.072-.571-.285-.179-.427-.375-.427-.586.007-.243.117-.472.328-.693.32-.31.73-.568 1.225-.775.495-.208.957-.311 1.388-.311.57 0 1.04.093 1.41.271h-.299c-.21.022-.36.058-.452.108-.04.21-.25.339-.63.392-.599.09-.919.304-.962.647 0 .322.146.575.431.761.285.186.591.279.922.279.66 0 1.236-.197 1.727-.59.52-.432.78-.936.78-1.522 0 0 .043-.3-.1-.682M121.364 20.334c.598-1.319 1.229-2.165 1.891-2.547.21-.122.424-.18.644-.18.221 0 .332.105.332.315 0 .3-.121.604-.36.904-.573.722-1.496 1.404-2.778 2.047.15-.329.24-.51.271-.54m-.527 3.162c.342-.254.662-.379.961-.379.36 0 .634.197.827.59.11.278.163.575.163.886 0 .232-.053.528-.163.89a6.457 6.457 0 0 1-1.578 2.575l.075-.032a1.01 1.01 0 0 0 .22-.136c.093-.068.2-.168.321-.3-.651.925-1.32 1.572-2.012 1.943a1.22 1.22 0 0 1-.509.136c-.399 0-.602-.332-.602-.993 0-.825.218-1.78.648-2.862.388-.993.94-1.768 1.65-2.318m3.122-3.133c.47-.293.876-.593 1.214-.904.563-.493.84-.928.84-1.31v-.104c0-.583-.316-1.058-.95-1.426a4.17 4.17 0 0 0-2.108-.546c-.89 0-1.62.19-2.187.571-.566.383-1.036.897-1.417 1.55-.082.147-.167.297-.246.45h-.003v.008l-.004.004c-.003.003-.003.007-.003.01-.517.954-1.008 2-1.478 3.133v.004c-.06.136-.121.268-.181.4-.417.936-.802 1.84-.99 2.415-.011.035-.025.068-.032.1-.143.439-.282.896-.424 1.368l-.826 2.65c-.193.533-.285.983-.285 1.354 0 .133.007.258.028.376l.004.032v.007c.025.132.31 1.518 2.34 1.582.213-.01.377-.053.494-.128a2.801 2.801 0 0 1-.135-.904l.014-.482c.182.682.541 1.14 1.083 1.368.188.082.327.121.42.121l.043.015a4.17 4.17 0 0 0 2.404-.422c.102-.046.206-.096.309-.15 0 0 .004 0 .004-.003 1.196-.63 1.95-1.544 2.481-2.365 0-.007.033-.068.033-.079a10.7 10.7 0 0 0 .683-1.164c.004-.004.004-.008.004-.011.003 0 .003-.004.003-.007.004-.004.004-.008.004-.008.231-.46.42-.932.577-1.421a6.458 6.458 0 0 0 .267-1.78c0-.81-.203-1.514-.613-2.107-.43-.632-1.007-1.007-1.727-1.129-.1-.01-.21-.014-.33-.014-.36 0-.788.06-1.276.179-.612.142-1.107.292-1.485.453l1.29-.564 2.16-1.122zM144.809 20.334c.601-1.319 1.232-2.165 1.89-2.547.21-.122.428-.18.645-.18.22 0 .331.105.331.315 0 .3-.12.604-.36.904-.57.722-1.495 1.404-2.777 2.047.15-.329.242-.51.27-.54m-.523 3.162c.339-.254.659-.379.958-.379.36 0 .637.197.826.59.11.278.168.575.168.886 0 .232-.057.528-.168.89-.039.117-.078.231-.12.346v.003c0 .004-.004.004-.004.007-.171.668-.592 1.369-.894 1.812a.952.952 0 0 0 .057-.061c-.054.075-.103.146-.164.218-.057.078-.103.143-.142.193a.35.35 0 0 1-.043.053l-.036.043c-.527.657-1.068 1.136-1.624 1.436-.192.09-.363.136-.512.136-.4 0-.599-.332-.599-.993 0-.825.214-1.78.645-2.862.388-.993.94-1.768 1.652-2.318m-6.306 7.498c.139-.132.27-.271.395-.418.007.025.014.054.025.086a7.802 7.802 0 0 1-.42.332m9.425-10.63c.47-.294.877-.594 1.218-.905.56-.493.84-.928.84-1.31v-.104c0-.583-.32-1.058-.954-1.426a4.161 4.161 0 0 0-2.108-.546c-.89 0-1.62.19-2.182.571a4.665 4.665 0 0 0-1.421 1.55c-.082.147-.164.297-.246.45h-.003v.008l-.004.004c0 .003-.004.007-.004.01-.092.19-.797 1.64-1.474 3.133-.003 0-.003.004-.003.004a99.7 99.7 0 0 0-.246.607c.021-.068.043-.14.068-.207l-.994 2.415a109.924 109.924 0 0 0-.456 1.468l-.196.625c-.836 1.383-1.58 2.368-2.236 2.958-.17.14-.324.221-.466.24l-.014.153.014.328a1.183 1.183 0 0 1-.239-.735v-.183c.029-.7.417-1.847 1.154-3.432.22-.5.402-.94.541-1.311.253-.64.378-1.24.378-1.79l-.032-.333s-.132-.91-1.022-1.346c-.004 0-.004-.004-.004-.004a1.507 1.507 0 0 0-.228-.057 3.693 3.693 0 0 0-.605-.054c-.702 0-1.428.336-2.18 1.011-.348.29-.694.622-1.036.994a22.532 22.532 0 0 0-2.371 2.918v-.014c0-.029.032-.115.093-.254a45.724 45.724 0 0 1 1.858-3.886c.05-.09.075-.161.075-.211 0-.079-.068-.157-.21-.225a2.633 2.633 0 0 0-.51-.218c0-.004-.003-.004-.003-.004h-.003a2.338 2.338 0 0 0-.164-.046h-.004c-.38-.093-1.31-.218-2.133.453v.004a2.807 2.807 0 0 0-.41.593 18.54 18.54 0 0 0-.444.911l-.004.003v.004c0 .004-.003.007-.003.01 0 0-.004 0-.004.004l-.003.008c-.16.393-1.824 4.386-2.101 5.211v.004a.492.492 0 0 0-.022.072l.007-.015c-.256.847-.38 1.38-.38 1.59 0 .532.16.996.48 1.4.36.422.833.632 1.424.632.221 0 .381-.042.481-.128.1-.086.189-.225.27-.414.371-.994 1.051-2.205 2.041-3.63.99-1.425 1.89-2.618 2.703-3.583.26-.304.491-.546.69-.732.2-.186.346-.279.435-.279.071 0 .107.072.107.21-.01.133-.057.315-.136.544a25.857 25.857 0 0 1-.993 2.365c-.228.493-.449.99-.659 1.49-.32.742-.48 1.407-.48 1.99 0 .328.05.631.15.9.291.764 1.075 1.192 2.356 1.282h.107c.88 0 1.66-.247 2.34-.74.22-.157.43-.332.626-.518.207.454.762 1.19 2.226 1.236.213-.01.377-.053.495-.128a2.801 2.801 0 0 1-.135-.904l.014-.482c.181.682.541 1.14 1.082 1.368.189.082.331.121.42.121l.047.015a4.155 4.155 0 0 0 2.4-.422l.31-.15c.003 0 .003 0 .007-.003 1.2-.633 1.947-1.544 2.482-2.369 0-.01.032-.068.032-.075.253-.375.48-.768.68-1.164.003-.004.003-.008.007-.011 0 0 0-.004.003-.007 0-.004.004-.008.004-.008.228-.46.42-.932.573-1.421.178-.622.27-1.215.27-1.78 0-.81-.206-1.514-.615-2.107-.431-.632-1.004-1.007-1.727-1.129-.1-.01-.21-.014-.331-.014-.36 0-.784.06-1.275.179-.609.142-1.104.292-1.485.453l1.29-.564 2.16-1.122z" fill="#FFF"/>
        <path d="M81.358 36.981c-16.433 4.303-18.412-1.765-18.2-5.588.078-.763.252-1.664.522-2.704.246-.949.571-2.012.976-3.193l.631-1.565c1.22-3.012 2.551-5.672 3.992-7.98.115-.185.231-.363.347-.535l.004-.007c.064-.1.872-1.367 1.622-2.285.22-.268.434-.507.624-.678 0 0 .253-.439-.013-.718a.453.453 0 0 0-.07-.06c-.777-.589-1.37-.888-1.778-.898h-.63c-.811 0-1.552.397-2.222 1.19-1 1.214-2.029 3.089-3.084 5.623a75.229 75.229 0 0 0-2.665 7.432V27.8c-.14-.311-.295-.918-.465-1.822-.1-.452-.16-1.008-.18-1.67v-2.953c0-2.865.029-5.04.088-6.523v-.004l.001-.042c.004-.174.016-.838-.039-1.474a6.623 6.623 0 0 0-.06-.497c-.137-.82-.96-1.098-.988-1.107a1.027 1.027 0 0 0-.488-.125h-.6c-.68 0-1.38.105-2.095.316-.715.21-1.263.442-1.643.693.32.24.48.738.48 1.49 0 .984-.205 2.315-.615 3.99a54.819 54.819 0 0 1-1.036 3.63c-.278.856-.599 1.675-.965 2.458v.002c-.002.001-.002.004-.004.009-.059.14-.701 1.678-1.579 3.218-1.085 1.905-2.532 3.813-3.683 3.082a.594.594 0 0 1-.074-.05l.003.004c.028.07.463 1.09 1.759 1.61.331.134.72.234 1.173.277h.003c.98-.054 1.872-.499 2.677-1.334.34-.352.6-.668.78-.949l.255-.407c.85-1.325 1.692-3.217 2.522-5.676l.826-2.35c.06.643.11 1.275.15 1.898.12 1.496.27 3.002.45 4.517l.105.573c1.555 16.84 22.262 10.61 22.262 10.61 23.934-5.576 40.66 1.76 40.66 1.76.673-1.512-.428-2.916-.428-2.916-2.744-3.17-16.29-7.083-39.308-1.057" fill="#FFF"/>
        <path d="M53.181 20.012c-.253.83-.624 1.897-1.134 3.032l-.338.028-6.024.5C29.03 37.176 15.502 42.526 5.966 35.483c-3.642-3.61-4.276-6.845-4.273-10.32A2.41 2.41 0 0 1 .542 22.84a2.403 2.403 0 0 1 2.647-2.137 2.41 2.41 0 0 1 1.202 4.307c-.178 3.628 1.024 6.648 4.03 8.873 10.495 5.668 22.974-2.365 35.796-12.809C32.324 9.678 20.582.736 9.698 5.513c-3.226 2.004-4.663 4.978-4.736 8.689a2.411 2.411 0 0 1 1.101 2.293 2.405 2.405 0 0 1-2.649 2.135 2.407 2.407 0 0 1-2.128-2.656c.074-.695.44-1.286.957-1.673.222-3.717.974-7.076 5.137-10.586 10.076-6.242 23.127.191 38.624 15.106l6.963 1.156.214.035zM174.189 25.516a5.057 5.057 0 0 1-6.918 1.82 5.086 5.086 0 0 1-1.822-6.94 5.051 5.051 0 0 1 6.918-1.82c2.41 1.403 3.223 4.524 1.822 6.94m-.544-9.144a7.543 7.543 0 0 0-3.786-1.037l-.146.002c-4.098.105-7.392 3.473-7.392 7.61 0 4.205 3.399 7.614 7.59 7.614.327 0 .65-.02.965-.062.064-.008.128-.016.191-.026a7.575 7.575 0 0 0 5.312-3.673c2.11-3.63.886-8.31-2.734-10.428" fill="#FFF"/>
        <path d="M169.732 20.247a2.707 2.707 0 0 0-2.615 2.794 2.705 2.705 0 0 0 2.785 2.624 2.707 2.707 0 0 0 2.616-2.795 2.706 2.706 0 0 0-2.786-2.623" fill="#FFF"/>
        <path d="M145.547 27.535c-.182.272-.303.455-.364.516l.061-.152c.09-.122.211-.243.303-.364" fill="#B53EF0"/>
        <path d="M166.116 26.563c-3.044 2.99-6.262 4.502-9.57 4.502-.168 0-.339-.004-.507-.012-3.017-.142-5.462-1.513-7.047-2.714l.045-.087.115-.115v-.004l.004-.002v-.113c.221-.463.402-.92.552-1.401l.075-.28c1.315 1.082 3.58 2.537 6.369 2.66 2.892.13 5.76-1.185 8.528-3.903l1.436 1.47zM13.751 48.162v-1.8H11.33v1.8h-.326v-3.786h.326v1.691h2.422v-1.69h.327v3.785zM18.343 46.788c0-.607-.36-1.169-1.014-1.169-.64 0-1.007.562-1.007 1.17 0 .612.366 1.174 1.007 1.174.653 0 1.014-.562 1.014-1.175m-2.336 0c0-.8.515-1.436 1.322-1.436.82 0 1.335.636 1.335 1.436 0 .8-.516 1.442-1.335 1.442-.807 0-1.322-.641-1.322-1.442M22.442 48.162v-.403c-.223.25-.595.47-.996.47-.561 0-.87-.26-.87-.879v-1.93h.298v1.862c0 .534.269.681.67.681a1.2 1.2 0 0 0 .898-.454v-2.088h.298v2.74h-.298zM24.572 47.793l.178-.216c.177.222.504.403.893.403.464 0 .739-.238.739-.556 0-.75-1.747-.324-1.747-1.311 0-.42.36-.76.985-.76.475 0 .79.18.99.402l-.165.21c-.16-.215-.459-.363-.825-.363-.43 0-.687.216-.687.5 0 .686 1.74.266 1.74 1.322 0 .443-.343.806-1.036.806-.446 0-.79-.13-1.065-.437M28.752 45.42h.916v2.742h-.916zM28.506 44.762c0-.125.334-.221.704-.221.388 0 .705.096.705.221s-.317.227-.705.227c-.37 0-.704-.102-.704-.227M32.823 48.162v-1.856c0-.528-.27-.687-.67-.687-.355 0-.722.222-.9.471v2.072h-.297V45.42h.298v.414c.2-.239.595-.483.996-.483.561 0 .87.273.87.891v1.919h-.297zM37.231 47.452V46.12c-.16-.267-.526-.5-.91-.5-.613 0-.968.505-.968 1.17 0 .663.355 1.163.968 1.163.384 0 .75-.233.91-.5M35.2 48.86l.171-.238c.241.283.504.385.922.385.499 0 .94-.25.94-.868v-.437a1.19 1.19 0 0 1-.963.517c-.733 0-1.23-.551-1.23-1.43 0-.869.497-1.437 1.23-1.437.396 0 .74.199.962.511v-.442h.304v2.718c0 .834-.573 1.135-1.243 1.135-.47 0-.767-.085-1.093-.414M42.03 47.628l.211-.244c.246.278.647.55 1.197.55.778 0 1.002-.43 1.002-.754 0-1.113-2.29-.534-2.29-1.856 0-.619.56-1.01 1.253-1.01.567 0 1.002.198 1.294.533l-.217.239c-.275-.33-.664-.477-1.094-.477-.51 0-.893.29-.893.698 0 .97 2.29.437 2.29 1.85 0 .488-.326 1.073-1.357 1.073-.63 0-1.105-.256-1.397-.602M48.883 46.788c0-.607-.361-1.169-1.014-1.169-.641 0-1.007.562-1.007 1.17 0 .612.366 1.174 1.007 1.174.653 0 1.014-.562 1.014-1.175m-2.336 0c0-.8.515-1.436 1.322-1.436.819 0 1.334.636 1.334 1.436 0 .8-.515 1.442-1.334 1.442-.807 0-1.322-.641-1.322-1.442M51.116 47.634v-3.258h.397v3.212c0 .222.122.375.381.375a.682.682 0 0 0 .412-.13l.153.227c-.145.102-.32.17-.626.17-.48 0-.717-.221-.717-.596M55.593 48.162v-.403c-.223.25-.596.47-.996.47-.561 0-.87-.26-.87-.879v-1.93h.297v1.862c0 .534.27.681.67.681a1.2 1.2 0 0 0 .899-.454v-2.088h.298v2.74h-.298zM58.02 47.634v-1.952h-.458v-.261h.458v-.75h.304v.75h.561v.26h-.561v1.907c0 .222.092.375.286.375a.434.434 0 0 0 .31-.13l.114.227c-.109.102-.24.17-.47.17-.366 0-.544-.221-.544-.596M60.85 45.42h.915v2.742h-.916zM60.603 44.762c0-.125.334-.221.704-.221.388 0 .705.096.705.221s-.317.227-.705.227c-.37 0-.704-.102-.704-.227M65.235 46.788c0-.607-.361-1.169-1.014-1.169-.641 0-1.007.562-1.007 1.17 0 .612.366 1.174 1.007 1.174.653 0 1.014-.562 1.014-1.175m-2.336 0c0-.8.515-1.436 1.322-1.436.819 0 1.334.636 1.334 1.436 0 .8-.515 1.442-1.334 1.442-.807 0-1.322-.641-1.322-1.442M69.334 48.162v-1.856c0-.528-.269-.687-.67-.687-.355 0-.721.222-.899.471v2.072h-.297V45.42h.297v.414c.2-.239.596-.483.997-.483.56 0 .87.273.87.891v1.919h-.298zM75.472 48.162v-1.618l-1.518-2.168h.395l1.289 1.862 1.288-1.862h.395l-1.517 2.168v1.618zM80.459 46.788c0-.607-.361-1.169-1.014-1.169-.64 0-1.007.562-1.007 1.17 0 .612.366 1.174 1.007 1.174.653 0 1.014-.562 1.014-1.175m-2.336 0c0-.8.515-1.436 1.322-1.436.82 0 1.334.636 1.334 1.436 0 .8-.515 1.442-1.334 1.442-.807 0-1.322-.641-1.322-1.442M84.558 48.162v-.403c-.223.25-.595.47-.996.47-.561 0-.87-.26-.87-.879v-1.93h.297v1.862c0 .534.27.681.67.681a1.2 1.2 0 0 0 .9-.454v-2.088h.297v2.74h-.298zM87.198 45.454l-.332-.163c.366-.15.64-.415.664-.633a.38.38 0 0 1-.115.013c-.275 0-.47-.122-.47-.286 0-.156.218-.293.493-.293.31 0 .584.157.584.436 0 .382-.378.736-.824.926M90.072 48.162l-1.168-2.741h.332l1.008 2.395.996-2.395h.338l-1.168 2.74zM94.395 45.608c-.653 0-.98.567-1.002 1.044h2.01c-.006-.465-.316-1.044-1.008-1.044m-1.323 1.18c0-.794.561-1.436 1.328-1.436.842 0 1.306.659 1.306 1.453v.08h-2.313c.028.596.429 1.09 1.082 1.09.349 0 .67-.131.905-.38l.154.192c-.275.284-.624.443-1.082.443-.808 0-1.38-.596-1.38-1.442M101.637 44.722l-.905 2.214h1.804l-.899-2.214zm1.386 3.44-.378-.931h-2.021l-.378.93h-.378l1.563-3.785h.407l1.563 3.786h-.378zM105.095 47.634v-3.258h.397v3.212c0 .222.122.375.382.375a.682.682 0 0 0 .412-.13l.153.227c-.145.102-.32.17-.626.17-.481 0-.718-.221-.718-.596M110.077 48.162l-.773-2.344-.78 2.344h-.285l-.9-2.741h.321l.733 2.326.779-2.326h.257l.78 2.326.732-2.326h.32l-.898 2.74zM115.006 47.475v-1.357c-.16-.26-.52-.499-.91-.499-.613 0-.968.51-.968 1.175 0 .664.355 1.17.968 1.17.39 0 .75-.228.91-.489m0 .687v-.437a1.18 1.18 0 0 1-.962.505c-.733 0-1.23-.556-1.23-1.436 0-.868.497-1.442 1.23-1.442.395 0 .739.2.962.511v-.442h.304v2.74h-.304zM117.348 48.86l.178-.238c.206.266.492.385.841.385.55 0 .882-.317.882-.868v-.409c-.223.25-.596.471-.996.471-.562 0-.87-.26-.87-.88v-1.9h.297v1.838c0 .528.27.676.67.676a1.2 1.2 0 0 0 .899-.454v-2.06h.298v2.718c0 .812-.579 1.135-1.18 1.135-.458 0-.756-.142-1.02-.414M121.379 47.793l.177-.216c.178.222.504.403.893.403.464 0 .739-.238.739-.556 0-.75-1.746-.324-1.746-1.311 0-.42.36-.76.985-.76.475 0 .79.18.99.402l-.166.21c-.16-.215-.458-.363-.824-.363-.43 0-.688.216-.688.5 0 .686 1.741.266 1.741 1.322 0 .443-.343.806-1.036.806-.447 0-.79-.13-1.065-.437M130.837 46.272c0-.886-.572-1.6-1.586-1.6h-.893v3.195h.893c1.008 0 1.586-.71 1.586-1.595m-2.805 1.89v-3.786h1.22c1.184 0 1.929.857 1.929 1.896 0 1.05-.745 1.89-1.93 1.89h-1.22zM133.127 48.162V45.42h.325v.47c.256-.306.6-.527 1.018-.527v.323c-.056-.011-.1-.011-.162-.011-.306 0-.719.25-.856.488v1.998h-.325zM137.255 45.608c-.652 0-.979.567-1.002 1.044h2.01c-.006-.465-.315-1.044-1.008-1.044m-1.322 1.18c0-.794.56-1.436 1.328-1.436.842 0 1.305.659 1.305 1.453v.08h-2.313c.029.596.43 1.09 1.082 1.09.35 0 .67-.131.905-.38l.155.192c-.275.284-.624.443-1.082.443-.808 0-1.38-.596-1.38-1.442M142.517 47.475v-1.357c-.16-.26-.52-.499-.91-.499-.613 0-.968.51-.968 1.175 0 .664.355 1.17.968 1.17.39 0 .75-.228.91-.489m0 .687v-.437a1.18 1.18 0 0 1-.962.505c-.733 0-1.23-.556-1.23-1.436 0-.868.497-1.442 1.23-1.442.395 0 .739.2.962.511v-.442h.304v2.74h-.304zM148.185 48.162v-1.919c0-.385-.166-.624-.555-.624-.298 0-.636.216-.79.466v2.077h-.304v-1.919c0-.385-.16-.624-.55-.624-.297 0-.63.222-.795.471v2.072h-.298V45.42h.298v.414c.114-.176.492-.483.893-.483.43 0 .658.25.727.517.155-.256.527-.517.916-.517.51 0 .756.284.756.835v1.975h-.298zM151.724 45.608c-.653 0-.98.567-1.002 1.044h2.01c-.006-.465-.316-1.044-1.008-1.044m-1.323 1.18c0-.794.561-1.436 1.328-1.436.842 0 1.306.659 1.306 1.453v.08h-2.313c.028.596.43 1.09 1.082 1.09.349 0 .67-.131.905-.38l.154.192c-.275.284-.624.443-1.082.443-.807 0-1.38-.596-1.38-1.442M156.985 47.475v-1.357c-.16-.266-.52-.499-.91-.499-.613 0-.968.51-.968 1.175 0 .664.355 1.17.968 1.17.39 0 .75-.228.91-.489m0 .687v-.437a1.18 1.18 0 0 1-.961.505c-.734 0-1.232-.556-1.232-1.436 0-.868.498-1.442 1.232-1.442.395 0 .744.2.961.511v-1.487h.304v3.786h-.304zM165.225 46.272c0-.96-.596-1.663-1.512-1.663-.922 0-1.512.704-1.512 1.663 0 .953.59 1.663 1.512 1.663.916 0 1.512-.71 1.512-1.663m-3.367 0c0-1.107.732-1.958 1.855-1.958 1.116 0 1.855.851 1.855 1.958s-.739 1.958-1.855 1.958c-1.123 0-1.855-.851-1.855-1.958M167.606 48.162v-2.48h-.458v-.261h.458v-.25c0-.54.292-.852.75-.852.138 0 .263.023.372.086l-.091.244a.473.473 0 0 0-.252-.063c-.315 0-.476.216-.476.585v.25h.562v.26h-.562v2.48h-.303z" fill="#FFF"/>
    </g>
</svg>
